<svg width="241" height="40" viewBox="0 0 241 40" fill="none" xmlns="http://www.w3.org/2000/svg">
<g clip-path="url(#clip0_154_1568)">
<path d="M61.1424 11.6532C60.7113 10.7883 60.1077 10.0229 59.3695 9.40525C58.6314 8.78762 57.7747 8.33113 56.8535 8.06452C53.6018 7.15726 49.2331 8.95162 46.8791 10.2016C46.7272 7.58835 45.5754 5.13729 43.6674 3.36694C42.1641 2.07637 40.4146 1.1116 38.5273 0.532429C36.64 -0.0467385 34.6551 -0.227957 32.6956 7.39843e-06C23.9381 0.383072 18.951 3.70968 16.1182 8.9113C14.8376 11.308 14.3748 14.0646 14.8016 16.754C11.9689 16.129 6.52293 15.3831 3.25135 18.1452C2.19891 19.087 1.36265 20.2498 0.801016 21.5521C0.239379 22.8545 -0.0340904 24.2652 -0.000283417 25.6855C-0.039313 26.8468 0.170432 28.0029 0.614591 29.0747C1.05875 30.1465 1.72683 31.1086 2.5731 31.8952C9.97406 39.254 29.4041 39.5968 37.0245 37.8427C37.7027 37.6815 38.4209 37.4798 39.1789 37.2581C40.4756 37.2581 42.4106 37.621 42.4106 39.3952C42.4106 41.1694 42.8894 37.9436 42.9492 35.9677C50.2105 33.125 58.7685 27.9032 61.5813 20.746C62.1934 19.2955 62.472 17.7236 62.396 16.1486C62.32 14.5736 61.8913 13.0366 61.1424 11.6532ZM51.8663 28.2258C52.9978 26.2897 53.597 24.0833 53.6018 21.8347C50.3502 29.8992 48.5149 28.9516 44.5052 30.1613C35.7079 32.7823 35.3089 24.1129 36.7053 18.9919C32.3764 24.5766 34.7104 31.8952 34.7104 31.8952C28.1473 35.9274 18.2328 31.8952 18.2328 31.8952C19.3903 33.3795 20.7701 34.672 22.3223 35.7258C15.1408 34.9597 7.48047 33.2258 4.0892 29.8992C3.52317 29.3994 3.07523 28.7778 2.77833 28.08C2.48143 27.3821 2.34313 26.6259 2.37361 25.8669C2.3217 24.8428 2.49517 23.8197 2.88151 22.8715C3.26785 21.9232 3.85746 21.0733 4.60786 20.3831C7.62011 17.9032 14.1832 19.4355 16.0784 20.0605L18.8712 20.9476L17.5745 18.004C17.1698 16.7222 17.023 15.3715 17.143 14.0315C17.2629 12.6915 17.647 11.3892 18.2727 10.2016C20.507 5.70565 25.3345 3.08468 32.8552 2.56049C34.474 2.33706 36.1215 2.47392 37.6825 2.96148C39.2435 3.44904 40.6802 4.27552 41.8919 5.38307C42.8147 6.27128 43.5135 7.36992 43.93 8.58707C44.3465 9.80421 44.4685 11.1045 44.2858 12.379C44.2858 13.1855 44.2858 14.0121 44.2858 14.7782C44.1262 12.9234 51.0284 11.1089 52.2653 10.9073C53.0021 10.6977 53.7739 10.6439 54.5322 10.7494C55.2906 10.855 56.0192 11.1174 56.6726 11.5205C57.326 11.9235 57.8902 12.4585 58.3298 13.0918C58.7693 13.7252 59.0749 14.4435 59.2273 15.2016C61.0028 21.2298 56.1951 25.2621 51.8663 28.2258Z" fill="#008A2E"/>
<path d="M90.9256 7.05647C90.6881 7.05228 90.4526 7.01149 90.2274 6.9355C86.4873 5.8964 82.574 5.65608 78.7369 6.22986C77.2607 6.45163 75.6648 6.77421 73.9692 7.1976C74.0889 7.95128 74.1556 8.7126 74.1687 9.47582C74.1687 11.492 74.049 14.2944 73.7697 17.8428L83.744 16.9355C86.6565 16.6532 88.4519 16.492 89.1102 16.492C89.7305 16.4715 90.3357 16.6873 90.8059 17.0968C91.0258 17.3058 91.1999 17.5592 91.3167 17.8405C91.4336 18.1218 91.4906 18.4248 91.4841 18.7299C91.5121 19.0111 91.4812 19.2951 91.3936 19.5634C91.3059 19.8318 91.1634 20.0786 90.9753 20.2877C90.7872 20.4968 90.5577 20.6636 90.3017 20.7773C90.0457 20.891 89.7689 20.949 89.4893 20.9476L84.0632 21.4113L73.5503 22.3387C73.5503 23.367 73.4306 24.3549 73.3907 25.2823C73.3508 26.2097 73.3907 27.0565 73.3907 27.8629C73.1753 29.7756 73.4217 31.7126 74.1088 33.5081C74.4679 33.9113 75.6648 34.1129 77.6796 34.1129H81.9287C83.8238 34.1129 85.2402 34.1129 86.1977 34.1129C86.6463 34.1021 87.0932 34.0549 87.5343 33.9718C87.9769 33.8998 88.4231 33.8527 88.8708 33.8307C90.4667 33.8307 91.2846 34.5968 91.2846 36.1089C91.3096 36.3885 91.2766 36.6703 91.1876 36.9363C91.0986 37.2022 90.9556 37.4464 90.7678 37.6533C90.58 37.8602 90.3516 38.0252 90.097 38.1376C89.8425 38.2501 89.5676 38.3076 89.2898 38.3065C86.2175 38.6597 83.1245 38.7945 80.0336 38.7097C75.3257 38.7097 72.2935 38.125 70.9569 36.9355C69.6204 35.746 68.7626 32.6613 68.7626 28.0041C68.7626 27.0766 68.7626 25.9879 68.7626 24.9395C68.7626 23.8911 68.8623 22.6411 68.9421 21.371C68.7674 21.0428 68.6782 20.6751 68.6828 20.3024C68.6856 19.8198 68.847 19.3517 69.1416 18.9718C69.4408 14.7782 69.5805 11.6734 69.5805 9.67744C69.5548 8.88069 69.4815 8.08623 69.361 7.29841C69.2298 6.51875 69.1564 5.73026 69.1416 4.93953C69.1416 3.20566 69.8997 2.33873 71.4158 2.33873C72.0233 2.33038 72.6102 2.56184 73.0515 2.98389C74.7563 2.48129 76.488 2.0774 78.2382 1.77421C79.7516 1.5564 81.2778 1.4419 82.8064 1.43147C85.8014 1.3322 88.7908 1.75505 91.6437 2.68147C92.0863 2.79185 92.4782 3.05213 92.754 3.41896C93.0299 3.78579 93.1731 4.23704 93.1598 4.6976C93.1603 5.26668 92.9464 5.81458 92.5614 6.22986C92.3663 6.48152 92.1184 6.68623 91.8355 6.82919C91.5526 6.97215 91.2418 7.04978 90.9256 7.05647Z" fill="#008A2E"/>
<path d="M131.661 38.3065C131.251 38.2988 130.849 38.1809 130.499 37.9647C130.148 37.7486 129.861 37.4421 129.666 37.0766C129.058 35.9948 128.64 34.8148 128.429 33.5887L127.671 29.7581C126.993 27.3925 125.969 22.2715 124.599 14.3952L120.051 27.5202L118.695 31.5524C118.255 32.9503 117.681 34.3009 116.979 35.5847C116.751 36.0827 116.388 36.5056 115.933 36.8051C115.478 37.1046 114.949 37.2686 114.406 37.2782C113.954 37.2696 113.515 37.13 113.14 36.8762C112.765 36.6225 112.471 36.2651 112.291 35.8468C111.901 35.1035 111.594 34.3192 111.373 33.5081L110.735 31.0887C109.206 25.9678 107.876 20.4839 106.745 14.6371L105.927 18.5282L102.915 30.242C102.675 32.2823 102.295 34.3033 101.778 36.2903C101.642 36.7872 101.347 37.2245 100.939 37.5345C100.531 37.8444 100.034 38.0095 99.5238 38.0041C99.1902 38.0172 98.8579 37.9553 98.5508 37.8228C98.2438 37.6903 97.9697 37.4905 97.7484 37.2379C97.3693 36.7897 97.17 36.2143 97.1898 35.625C97.2919 32.5823 97.8156 29.5691 98.7458 26.6734L101.259 17.742L102.576 10.8871C102.892 8.67669 103.609 6.54418 104.691 4.59679C104.932 4.21254 105.265 3.89521 105.659 3.67345C106.052 3.4517 106.494 3.3325 106.945 3.32663C107.434 3.32962 107.91 3.48655 108.307 3.77561C108.704 4.06467 109.002 4.47149 109.159 4.93953C110.089 7.4984 110.757 10.1466 111.154 12.8428C112.061 18.0876 113.307 23.2667 114.884 28.3468C117.151 22.6491 119.076 16.8186 120.649 10.8871L121.348 7.70163C121.543 6.62498 121.899 5.58476 122.405 4.61695C122.618 4.13687 122.962 3.72815 123.396 3.43885C123.831 3.14956 124.338 2.99171 124.859 2.98389C126.189 2.98389 127.186 4.19356 127.851 6.61292C128.238 8.3087 128.531 10.0251 128.729 11.754C129.45 17.4321 130.57 23.0512 132.08 28.5686L133.197 32.2581C133.602 33.4704 133.889 34.7195 134.055 35.9879C134.056 36.2891 133.99 36.5867 133.863 36.8589C133.735 37.131 133.548 37.3707 133.317 37.5605C132.875 38.007 132.285 38.2727 131.661 38.3065Z" fill="#008A2E"/>
<path d="M154.064 37.7218C150.118 37.8348 146.261 36.5352 143.172 34.0524C141.663 32.8579 140.448 31.3258 139.624 29.5766C138.801 27.8273 138.39 25.9087 138.424 23.9718C138.414 19.0048 140.066 14.1803 143.112 10.2823C144.573 8.16695 146.52 6.44051 148.784 5.25035C151.049 4.06019 153.566 3.44166 156.118 3.44758C161.106 3.44758 164.816 4.52285 167.25 6.67339C169.803 8.91129 171.06 12.4395 171.06 17.2581C171.103 22.1344 169.6 26.8966 166.771 30.8468C165.394 32.9788 163.509 34.7262 161.288 35.9277C159.067 37.1293 156.583 37.7462 154.064 37.7218ZM156.058 7.86291C154.17 7.88971 152.317 8.39006 150.667 9.31904C149.016 10.248 147.62 11.5766 146.603 13.1855C144.267 16.2762 143.011 20.0625 143.032 23.9516C143 25.2697 143.278 26.5766 143.843 27.7648C144.409 28.953 145.245 29.9886 146.284 30.7863C148.498 32.4856 151.225 33.3614 154.004 33.2661C155.853 33.2467 157.666 32.7445 159.267 31.8084C160.868 30.8723 162.202 29.5341 163.14 27.9234C165.271 24.7717 166.392 21.0346 166.352 17.2177C166.501 15.8923 166.364 14.55 165.951 13.2831C165.538 12.0163 164.858 10.8549 163.958 9.87903C161.656 8.30778 158.884 7.595 156.118 7.86291H156.058Z" fill="#008A2E"/>
<path d="M208.124 31.5726C208.079 32.7418 207.959 33.9069 207.765 35.0605C207.752 35.3678 207.679 35.6694 207.549 35.9475C207.419 36.2256 207.235 36.4745 207.008 36.6794C206.781 36.8844 206.516 37.0412 206.228 37.1406C205.94 37.24 205.635 37.2799 205.331 37.2581C204.181 37.1076 203.121 36.5505 202.339 35.6855C194.55 28.2788 187.433 20.182 181.073 11.4919L180.934 16.4314V21.3911C180.934 22.6008 180.934 24.4153 180.934 26.8145C180.934 29.2137 180.934 31.0484 180.934 32.2581C180.934 36.1693 180.156 38.1048 178.58 38.1048C178.214 38.1301 177.847 38.0766 177.503 37.9481C177.159 37.8195 176.846 37.6187 176.585 37.3589C176.368 37.1522 176.195 36.9021 176.078 36.6244C175.962 36.3468 175.903 36.0476 175.907 35.746C175.907 35.121 175.907 34.2137 176.066 32.9839C176.226 31.754 176.206 30.8266 176.206 30.2016C176.206 29.5766 176.206 27.9637 176.206 26.1693C176.206 24.375 176.206 23.0242 176.206 22.1371C176.206 21.25 176.206 19.7379 176.206 17.7823C176.206 15.8266 176.206 14.4153 176.206 13.4476C176.206 12.4798 176.206 11.1694 175.927 9.41532C175.647 7.66129 175.647 6.25 175.647 5.38306C175.659 5.0303 175.745 4.68415 175.9 4.36776C176.055 4.05136 176.275 3.77201 176.545 3.54838C177.084 3.03023 177.796 2.73527 178.54 2.72177C179.351 2.72177 180.349 3.56855 181.532 5.26209C185.323 10.6653 188.714 15.1814 191.746 18.7702C195.417 23.0968 199.369 27.1717 203.576 30.9677C203.629 30.0411 203.629 29.1121 203.576 28.1855V25.4435C203.704 20.3144 203.498 15.1823 202.957 10.0806C202.794 9.30995 202.588 8.5493 202.339 7.80242C202.081 7.05471 201.926 6.27443 201.88 5.48387C201.828 5.14799 201.854 4.80452 201.956 4.48048C202.057 4.15644 202.232 3.86066 202.466 3.6164C202.7 3.37214 202.987 3.18607 203.304 3.07281C203.621 2.95956 203.96 2.92221 204.294 2.96371C206.954 2.96371 208.284 7.66801 208.284 17.0766C208.284 18.6895 208.284 21.1089 208.284 24.3145C208.284 27.5202 208.124 29.9597 208.124 31.5726Z" fill="#008A2E"/>
<path d="M238.686 37.0565C237.289 37.0565 236.072 35.3427 235.035 31.9153C234.656 30.6048 234.157 28.3266 233.559 25.0605C232.003 25.2621 229.988 25.625 227.574 26.1492L221.59 27.3387C220.812 29.254 219.595 32.0363 217.6 35.6855C217.414 36.0581 217.128 36.3707 216.776 36.588C216.423 36.8053 216.018 36.9187 215.605 36.9153C214.999 36.9155 214.415 36.6851 213.969 36.2702C213.744 36.0806 213.563 35.8432 213.439 35.5749C213.315 35.3066 213.251 35.0139 213.251 34.7177C214.089 31.9392 215.241 29.2671 216.682 26.754C216.42 26.3696 216.287 25.9102 216.303 25.4436C216.303 24.2742 217.041 23.5282 218.537 23.1855C220.28 20.0806 222.467 16.5121 225.1 12.4798C228.718 6.96909 230.959 4.21371 231.823 4.21371C233.02 4.21371 233.818 5.02017 234.277 6.61291L235.713 13.9315L239.104 29.0726L240.401 32.5202C240.728 33.2647 240.95 34.052 241.059 34.8589C241.065 35.1569 241.006 35.4525 240.885 35.7244C240.764 35.9963 240.585 36.2378 240.361 36.4315C239.904 36.8523 239.303 37.0765 238.686 37.0565ZM230.646 12.0968L224.183 22.1774C226.018 21.7339 228.791 21.1895 232.521 20.5444L230.646 12.0968Z" fill="#008A2E"/>
</g>
<defs>
<clipPath id="clip0_154_1568">
<rect width="241" height="40" fill="white"/>
</clipPath>
</defs>
</svg>
