<svg width="208" height="40" viewBox="0 0 208 40" fill="none" xmlns="http://www.w3.org/2000/svg">
<g clip-path="url(#clip0_822_24)">
<path d="M61.1424 11.653C60.7113 10.7881 60.1077 10.0227 59.3695 9.40503C58.6314 8.78741 57.7747 8.33092 56.8535 8.06431C53.6018 7.15705 49.2331 8.95141 46.8791 10.2014C46.7272 7.58814 45.5754 5.13707 43.6674 3.36673C42.1641 2.07615 40.4146 1.11138 38.5273 0.532215C36.64 -0.0469521 34.6551 -0.22817 32.6956 -0.000206225C23.9381 0.382858 18.951 3.70947 16.1182 8.91108C14.8376 11.3077 14.3748 14.0644 14.8016 16.7538C11.9689 16.1288 6.52293 15.3829 3.25135 18.145C2.19891 19.0868 1.36265 20.2495 0.801016 21.5519C0.239379 22.8543 -0.0340904 24.265 -0.000283417 25.6853C-0.039313 26.8466 0.170432 28.0027 0.614591 29.0745C1.05875 30.1463 1.72683 31.1084 2.5731 31.8949C9.97406 39.2538 29.4041 39.5966 37.0245 37.8425C37.7027 37.6812 38.4209 37.4796 39.1789 37.2579C40.4756 37.2579 42.4106 37.6208 42.4106 39.395C42.4106 41.1691 42.8894 37.9433 42.9492 35.9675C50.2105 33.1248 58.7685 27.903 61.5813 20.7458C62.1934 19.2953 62.472 17.7234 62.396 16.1484C62.32 14.5734 61.8913 13.0364 61.1424 11.653ZM51.8663 28.2256C52.9978 26.2895 53.597 24.0831 53.6018 21.8345C50.3502 29.899 48.5149 28.9514 44.5052 30.1611C35.7079 32.782 35.3089 24.1127 36.7053 18.9917C32.3764 24.5764 34.7104 31.8949 34.7104 31.8949C28.1473 35.9272 18.2328 31.8949 18.2328 31.8949C19.3903 33.3793 20.7701 34.6717 22.3223 35.7256C15.1408 34.9595 7.48047 33.2256 4.0892 29.899C3.52317 29.3992 3.07523 28.7776 2.77833 28.0798C2.48143 27.3819 2.34313 26.6257 2.37361 25.8667C2.3217 24.8426 2.49517 23.8195 2.88151 22.8713C3.26785 21.923 3.85746 21.0731 4.60786 20.3829C7.62011 17.903 14.1832 19.4353 16.0784 20.0603L18.8712 20.9474L17.5745 18.0038C17.1698 16.722 17.023 15.3713 17.143 14.0313C17.2629 12.6912 17.647 11.389 18.2727 10.2014C20.507 5.70544 25.3345 3.08447 32.8552 2.56028C34.474 2.33685 36.1215 2.47371 37.6825 2.96127C39.2435 3.44883 40.6802 4.27531 41.8919 5.38286C42.8147 6.27106 43.5135 7.3697 43.93 8.58685C44.3465 9.804 44.4685 11.1043 44.2858 12.3788C44.2858 13.1853 44.2858 14.0119 44.2858 14.778C44.1262 12.9232 51.0284 11.1087 52.2653 10.9071C53.0021 10.6974 53.7739 10.6437 54.5322 10.7492C55.2906 10.8547 56.0192 11.1172 56.6726 11.5203C57.326 11.9233 57.8902 12.4582 58.3298 13.0916C58.7693 13.725 59.0749 14.4432 59.2273 15.2014C61.0028 21.2296 56.1951 25.2619 51.8663 28.2256Z" fill="#388E3C"/>
<path d="M85.3564 5.38235C85.1818 5.3791 85.0087 5.3474 84.843 5.28834C82.0927 4.48083 79.2151 4.29407 76.3935 4.73997C75.3079 4.91231 74.1344 5.163 72.8875 5.49202C72.9756 6.07773 73.0246 6.66937 73.0342 7.26249C73.0342 8.82928 72.9462 11.0071 72.7408 13.7647L80.0755 13.0596C82.2172 12.8403 83.5374 12.7149 84.0215 12.7149C84.4776 12.699 84.9227 12.8668 85.2684 13.1849C85.4301 13.3474 85.5581 13.5443 85.644 13.7629C85.73 13.9815 85.7719 14.217 85.7672 14.454C85.7877 14.6726 85.765 14.8933 85.7006 15.1018C85.6361 15.3104 85.5313 15.5022 85.393 15.6647C85.2547 15.8272 85.0859 15.9568 84.8977 16.0452C84.7094 16.1335 84.5059 16.1786 84.3002 16.1775L80.3102 16.5379L72.5794 17.2586C72.5794 18.0577 72.4914 18.8254 72.4621 19.5461C72.4327 20.2668 72.4621 20.9249 72.4621 21.5516C72.3037 23.038 72.4849 24.5433 72.9902 25.9386C73.2542 26.252 74.1344 26.4086 75.616 26.4086H78.7406C80.1341 26.4086 81.1757 26.4086 81.8798 26.4086C82.2096 26.4002 82.5383 26.3636 82.8626 26.299C83.1881 26.243 83.5162 26.2064 83.8455 26.1893C85.019 26.1893 85.6205 26.7847 85.6205 27.9597C85.6388 28.177 85.6145 28.396 85.5491 28.6027C85.4837 28.8094 85.3785 28.9992 85.2404 29.16C85.1023 29.3207 84.9343 29.4489 84.7472 29.5363C84.56 29.6237 84.3578 29.6684 84.1535 29.6675C81.8943 29.9421 79.6199 30.0468 77.347 29.9809C73.885 29.9809 71.6553 29.5265 70.6724 28.6021C69.6896 27.6777 69.0588 25.2805 69.0588 21.6613C69.0588 20.9405 69.0588 20.0945 69.0588 19.2798C69.0588 18.465 69.1322 17.4936 69.1908 16.5065C69.0624 16.2515 68.9967 15.9657 69.0001 15.6761C69.0022 15.301 69.1208 14.9373 69.3375 14.6421C69.5576 11.3831 69.6602 8.97029 69.6602 7.41917C69.6414 6.8 69.5875 6.1826 69.4989 5.57036C69.4023 4.96447 69.3484 4.35171 69.3375 3.73722C69.3375 2.38979 69.895 1.71607 71.0098 1.71607C71.4566 1.70958 71.8881 1.88945 72.2127 2.21744C73.4663 1.82685 74.7397 1.51299 76.0267 1.27737C77.1396 1.1081 78.2619 1.01912 79.386 1.01101C81.5883 0.933866 83.7866 1.26247 85.8845 1.98242C86.21 2.0682 86.4981 2.27047 86.701 2.55554C86.9038 2.84062 87.0091 3.1913 86.9994 3.54921C86.9998 3.99145 86.8424 4.41725 86.5593 4.73997C86.4159 4.93554 86.2336 5.09463 86.0255 5.20573C85.8175 5.31682 85.589 5.37715 85.3564 5.38235Z" fill="#388E3C"/>
<path d="M118.117 30C117.794 29.9941 117.478 29.904 117.203 29.7388C116.927 29.5736 116.701 29.3393 116.548 29.0599C116.069 28.233 115.74 27.331 115.575 26.3938L114.979 23.4658C114.445 21.6575 113.639 17.7431 112.562 11.7226L108.984 21.7551L107.917 24.8373C107.572 25.9058 107.12 26.9382 106.568 27.9195C106.388 28.3002 106.103 28.6234 105.745 28.8524C105.387 29.0813 104.97 29.2066 104.543 29.214C104.188 29.2074 103.843 29.1007 103.548 28.9068C103.253 28.7128 103.021 28.4396 102.88 28.1199C102.573 27.5517 102.331 26.9522 102.158 26.3322L101.656 24.4829C100.453 20.5685 99.4068 16.3767 98.5176 11.9075L97.8742 14.8818L95.5047 23.8356C95.3159 25.3952 95.0171 26.94 94.6102 28.4589C94.503 28.8387 94.271 29.173 93.9504 29.4099C93.6297 29.6468 93.2383 29.773 92.837 29.7688C92.5746 29.7789 92.3132 29.7316 92.0717 29.6303C91.8301 29.529 91.6145 29.3763 91.4404 29.1832C91.1422 28.8406 90.9855 28.4008 91.0011 27.9503C91.0813 25.6245 91.4933 23.3213 92.225 21.1079L94.2022 14.2808L95.2379 9.0411C95.4863 7.35148 96.0502 5.72143 96.9013 4.23288C97.0915 3.93916 97.3532 3.6966 97.6628 3.52709C97.9724 3.35759 98.3201 3.26648 98.6745 3.26199C99.0593 3.26427 99.4338 3.38423 99.7459 3.60518C100.058 3.82613 100.292 4.1371 100.416 4.49486C101.147 6.45082 101.673 8.47503 101.986 10.536C102.699 14.545 103.679 18.5039 104.92 22.387C106.703 18.0318 108.217 13.5751 109.455 9.0411L110.004 6.60616C110.157 5.7832 110.438 4.98806 110.836 4.24829C111.003 3.88132 111.274 3.5689 111.616 3.34777C111.957 3.12664 112.357 3.00598 112.766 3C113.812 3 114.597 3.92466 115.12 5.77397C115.425 7.0702 115.655 8.38219 115.81 9.70377C116.377 14.044 117.258 18.3391 118.446 22.5565L119.325 25.3767C119.644 26.3034 119.869 27.2582 120 28.2277C120.001 28.458 119.949 28.6855 119.849 28.8935C119.748 29.1015 119.601 29.2847 119.419 29.4298C119.072 29.7711 118.608 29.9742 118.117 30Z" fill="#388E3C"/>
<path d="M135.46 29.9946C132.317 30.0837 129.244 29.0601 126.784 27.1046C125.581 26.1638 124.614 24.9571 123.958 23.5794C123.302 22.2017 122.974 20.6906 123.002 19.165C122.994 15.253 124.31 11.4532 126.736 8.38308C127.9 6.71704 129.451 5.35729 131.255 4.41991C133.059 3.48253 135.063 2.99537 137.097 3.00003C141.07 3.00003 144.025 3.84692 145.964 5.5407C147.998 7.30329 148.999 10.0821 148.999 13.8773C149.034 17.7179 147.837 21.4687 145.583 24.5798C144.486 26.2591 142.984 27.6353 141.215 28.5817C139.446 29.528 137.467 30.0139 135.46 29.9946ZM137.049 6.47757C135.545 6.49869 134.069 6.89276 132.754 7.62444C131.439 8.35611 130.327 9.40249 129.517 10.6697C127.656 13.104 126.656 16.0861 126.672 19.1492C126.647 20.1873 126.868 21.2166 127.319 22.1525C127.769 23.0883 128.435 23.9039 129.263 24.5322C131.027 25.8706 133.199 26.5604 135.412 26.4853C136.886 26.47 138.33 26.0745 139.605 25.3373C140.88 24.6 141.943 23.5459 142.691 22.2774C144.388 19.795 145.281 16.8517 145.249 13.8455C145.368 12.8016 145.259 11.7444 144.93 10.7466C144.6 9.7488 144.059 8.83411 143.342 8.06549C141.508 6.82796 139.3 6.26657 137.097 6.47757H137.049Z" fill="#388E3C"/>
<path d="M177.878 25.0116C177.843 25.9037 177.751 26.7925 177.603 27.6727C177.593 27.9071 177.537 28.1373 177.437 28.3494C177.338 28.5616 177.197 28.7515 177.023 28.9079C176.849 29.0642 176.646 29.1838 176.425 29.2597C176.204 29.3355 175.971 29.366 175.738 29.3493C174.858 29.2345 174.045 28.8095 173.446 28.1495C167.48 22.4986 162.028 16.3212 157.156 9.69116L157.05 13.4597V17.2437C157.05 18.1666 157.05 19.551 157.05 21.3815C157.05 23.2119 157.05 24.6117 157.05 25.5346C157.05 28.5187 156.454 29.9954 155.246 29.9954C154.966 30.0146 154.685 29.9738 154.422 29.8757C154.158 29.7776 153.918 29.6244 153.718 29.4262C153.552 29.2685 153.419 29.0777 153.33 28.8659C153.241 28.654 153.196 28.4258 153.199 28.1957C153.199 27.7188 153.199 27.0266 153.321 26.0883C153.443 25.15 153.428 24.4425 153.428 23.9656C153.428 23.4888 153.428 22.2582 153.428 20.8892C153.428 19.5202 153.428 18.4896 153.428 17.8128C153.428 17.136 153.428 15.9824 153.428 14.4903C153.428 12.9983 153.428 11.9215 153.428 11.1832C153.428 10.4449 153.428 9.44504 153.214 8.10681C153 6.76858 153 5.69184 153 5.03042C153.009 4.76128 153.075 4.49719 153.194 4.2558C153.312 4.01441 153.481 3.80128 153.688 3.63066C154.101 3.23534 154.646 3.0103 155.216 3C155.837 3 156.601 3.64604 157.508 4.93813C160.411 9.0605 163.009 12.5061 165.332 15.244C168.144 18.545 171.171 21.6539 174.394 24.5501C174.434 23.8432 174.434 23.1344 174.394 22.4274V20.3355C174.492 16.4222 174.334 12.5067 173.92 8.61442C173.795 8.02642 173.637 7.44609 173.446 6.87626C173.248 6.3058 173.13 5.71049 173.095 5.10733C173.055 4.85107 173.075 4.58902 173.153 4.3418C173.231 4.09457 173.364 3.86891 173.544 3.68255C173.723 3.4962 173.943 3.35423 174.186 3.26783C174.428 3.18142 174.688 3.15293 174.944 3.18458C176.981 3.18458 178 6.77371 178 13.952C178 15.1825 178 17.0284 178 19.4741C178 21.9198 177.878 23.781 177.878 25.0116Z" fill="#388E3C"/>
<path d="M202.122 28.9991C201.017 28.9991 200.054 27.6946 199.234 25.0858C198.934 24.0883 198.539 22.3541 198.066 19.868C196.835 20.0215 195.241 20.2977 193.331 20.6967L188.597 21.6022C187.981 23.0601 187.019 25.1778 185.44 27.9555C185.293 28.2391 185.068 28.4771 184.789 28.6425C184.51 28.8079 184.189 28.8942 183.862 28.8916C183.383 28.8917 182.921 28.7164 182.568 28.4006C182.39 28.2563 182.247 28.0756 182.149 27.8713C182.05 27.6671 182 27.4443 182 27.2189C182.663 25.1039 183.574 23.07 184.714 21.1571C184.507 20.8645 184.402 20.5148 184.415 20.1596C184.415 19.2695 184.999 18.7017 186.182 18.4408C187.56 16.0775 189.291 13.3612 191.374 10.292C194.236 6.09732 196.009 4 196.693 4C197.64 4 198.271 4.61385 198.634 5.8262L199.77 11.3969L202.453 22.9219L203.479 25.5461C203.737 26.1129 203.913 26.7121 204 27.3263C204.004 27.5531 203.957 27.7781 203.862 27.9851C203.766 28.1921 203.625 28.3759 203.447 28.5233C203.086 28.8437 202.61 29.0143 202.122 28.9991ZM195.762 10.0004L190.648 17.6735C192.1 17.3359 194.294 16.9215 197.245 16.4305L195.762 10.0004Z" fill="#388E3C"/>
<path d="M72.3566 39.9807C72.1357 39.9807 71.9647 39.926 71.8435 39.8166C71.7295 39.7007 71.6725 39.543 71.6725 39.3434V34.1297H69.5879C69.4027 34.1297 69.2566 34.0846 69.1497 33.9945C69.0499 33.8979 69 33.7692 69 33.6083C69 33.4409 69.0499 33.3154 69.1497 33.2317C69.2566 33.1416 69.4027 33.0966 69.5879 33.0966H75.1253C75.3106 33.0966 75.4532 33.1416 75.5529 33.2317C75.6598 33.3154 75.7133 33.4409 75.7133 33.6083C75.7133 33.7692 75.6598 33.8979 75.5529 33.9945C75.4532 34.0846 75.3106 34.1297 75.1253 34.1297H73.0408V39.3434C73.0408 39.543 72.9838 39.7007 72.8698 39.8166C72.7557 39.926 72.5847 39.9807 72.3566 39.9807Z" fill="#388E3C"/>
<path d="M77.2216 39.9034C76.9864 39.9034 76.8047 39.8487 76.6764 39.7393C76.5552 39.6234 76.4947 39.4593 76.4947 39.2469V33.7531C76.4947 33.5407 76.5552 33.3798 76.6764 33.2703C76.8047 33.1545 76.9864 33.0966 77.2216 33.0966H81.0379C81.2161 33.0966 81.3515 33.1384 81.4441 33.2221C81.5439 33.3057 81.5938 33.4248 81.5938 33.5793C81.5938 33.7402 81.5439 33.8657 81.4441 33.9559C81.3515 34.0395 81.2161 34.0814 81.0379 34.0814H77.8095V35.9545H80.8027C80.988 35.9545 81.127 35.9963 81.2196 36.08C81.3123 36.1637 81.3586 36.286 81.3586 36.4469C81.3586 36.6078 81.3123 36.7301 81.2196 36.8138C81.127 36.8975 80.988 36.9393 80.8027 36.9393H77.8095V38.9186H81.0379C81.2161 38.9186 81.3515 38.9605 81.4441 39.0441C81.5439 39.1278 81.5938 39.2501 81.5938 39.411C81.5938 39.572 81.5439 39.6943 81.4441 39.7779C81.3515 39.8616 81.2161 39.9034 81.0379 39.9034H77.2216Z" fill="#388E3C"/>
<path d="M83.5573 39.9807C83.3364 39.9807 83.1653 39.926 83.0442 39.8166C82.9302 39.7007 82.8731 39.543 82.8731 39.3434V33.6469C82.8731 33.4409 82.9302 33.2864 83.0442 33.1834C83.1653 33.074 83.3364 33.0193 83.5573 33.0193C83.7782 33.0193 83.9457 33.074 84.0597 33.1834C84.1809 33.2864 84.2415 33.4409 84.2415 33.6469V35.9834H85.4601L85.1929 36.1476L87.1598 33.3379C87.2596 33.2028 87.3736 33.1126 87.5019 33.0676C87.6373 33.0225 87.7691 33.0129 87.8974 33.0386C88.0257 33.0644 88.1362 33.1191 88.2288 33.2028C88.3215 33.2864 88.3714 33.3894 88.3785 33.5117C88.3927 33.634 88.35 33.766 88.2502 33.9076L86.4543 36.389L85.9198 36.0317C86.383 36.0961 86.775 36.2474 87.0957 36.4855C87.4164 36.7237 87.6908 37.0552 87.9188 37.48L88.7954 39.1021C88.888 39.263 88.9165 39.4078 88.8809 39.5366C88.8524 39.6653 88.7811 39.7683 88.6671 39.8455C88.5602 39.9163 88.4355 39.9582 88.293 39.971C88.1576 39.9839 88.0221 39.9614 87.8867 39.9034C87.7585 39.8391 87.6551 39.7329 87.5767 39.5848L86.7322 37.9434C86.5612 37.6087 86.3545 37.3706 86.1122 37.229C85.877 37.0874 85.5813 37.0166 85.2249 37.0166H84.2415V39.3434C84.2415 39.543 84.1844 39.7007 84.0704 39.8166C83.9564 39.926 83.7854 39.9807 83.5573 39.9807Z" fill="#388E3C"/>
<path d="M93.4574 40C92.6734 40 92 39.8584 91.437 39.5752C90.8811 39.2855 90.4535 38.88 90.1542 38.3586C89.8549 37.8308 89.7052 37.2097 89.7052 36.4952C89.7052 35.9609 89.7907 35.4814 89.9618 35.0566C90.1328 34.6253 90.3787 34.2584 90.6994 33.9559C91.0201 33.6469 91.412 33.412 91.8753 33.251C92.3456 33.0837 92.873 33 93.4574 33C93.8493 33 94.2342 33.0451 94.6119 33.1352C94.9896 33.2253 95.321 33.354 95.6061 33.5214C95.7557 33.6051 95.8555 33.708 95.9054 33.8303C95.9553 33.9462 95.966 34.0621 95.9374 34.1779C95.9089 34.2874 95.8484 34.3807 95.7557 34.4579C95.6702 34.5352 95.5597 34.5802 95.4243 34.5931C95.296 34.5995 95.1535 34.5577 94.9967 34.4676C94.7758 34.3389 94.5371 34.2455 94.2805 34.1876C94.0239 34.1297 93.7638 34.1007 93.5001 34.1007C92.9941 34.1007 92.5665 34.194 92.2173 34.3807C91.8681 34.5674 91.6045 34.8377 91.4263 35.1917C91.2481 35.5457 91.159 35.9802 91.159 36.4952C91.159 37.0037 91.2481 37.4382 91.4263 37.7986C91.6045 38.1591 91.8681 38.4326 92.2173 38.6193C92.5665 38.806 92.9941 38.8993 93.5001 38.8993C93.771 38.8993 94.0382 38.8703 94.3019 38.8124C94.5656 38.748 94.815 38.6515 95.0502 38.5228C95.207 38.4391 95.3459 38.4037 95.4671 38.4166C95.5954 38.423 95.7023 38.4616 95.7878 38.5324C95.8733 38.6032 95.9303 38.6933 95.9588 38.8028C95.9873 38.9057 95.9802 39.0152 95.9374 39.131C95.8947 39.2405 95.8092 39.337 95.6809 39.4207C95.3958 39.6074 95.0537 39.7522 94.6547 39.8552C94.2627 39.9517 93.8636 40 93.4574 40Z" fill="#388E3C"/>
<path d="M99.614 39.9807C99.393 39.9807 99.222 39.926 99.1008 39.8166C98.9868 39.7007 98.9298 39.543 98.9298 39.3434V34.1297H96.8453C96.66 34.1297 96.5139 34.0846 96.407 33.9945C96.3072 33.8979 96.2573 33.7692 96.2573 33.6083C96.2573 33.4409 96.3072 33.3154 96.407 33.2317C96.5139 33.1416 96.66 33.0966 96.8453 33.0966H102.383C102.568 33.0966 102.71 33.1416 102.81 33.2317C102.917 33.3154 102.971 33.4409 102.971 33.6083C102.971 33.7692 102.917 33.8979 102.81 33.9945C102.71 34.0846 102.568 34.1297 102.383 34.1297H100.298V39.3434C100.298 39.543 100.241 39.7007 100.127 39.8166C100.013 39.926 99.842 39.9807 99.614 39.9807Z" fill="#388E3C"/>
<path d="M104.329 39.9807C104.237 39.9807 104.155 39.9678 104.083 39.9421C104.012 39.9163 103.952 39.8777 103.902 39.8262C103.852 39.7683 103.813 39.7007 103.784 39.6234C103.763 39.5462 103.752 39.4561 103.752 39.3531V33.6083C103.752 33.4216 103.805 33.2768 103.912 33.1738C104.026 33.0708 104.187 33.0193 104.393 33.0193C104.6 33.0193 104.757 33.0708 104.864 33.1738C104.971 33.2768 105.024 33.4216 105.024 33.6083V38.1752H104.778L108.84 33.3766C108.947 33.2478 109.051 33.1577 109.15 33.1062C109.25 33.0483 109.382 33.0193 109.546 33.0193C109.66 33.0193 109.756 33.0418 109.835 33.0869C109.92 33.132 109.984 33.1995 110.027 33.2897C110.077 33.3733 110.102 33.4731 110.102 33.589V39.3821C110.102 39.5752 110.048 39.7232 109.941 39.8262C109.835 39.9292 109.678 39.9807 109.471 39.9807C109.264 39.9807 109.104 39.9292 108.99 39.8262C108.883 39.7232 108.83 39.5752 108.83 39.3821V34.8152H109.065L105.013 39.6138C104.899 39.7425 104.796 39.8359 104.703 39.8938C104.618 39.9517 104.493 39.9807 104.329 39.9807Z" fill="#388E3C"/>
<path d="M117.457 39.9807C117.236 39.9807 117.065 39.926 116.944 39.8166C116.83 39.7007 116.773 39.543 116.773 39.3434V34.1297H114.079V35.4814C114.079 36.0671 114.036 36.5885 113.951 37.0455C113.865 37.5025 113.74 37.908 113.577 38.2621C113.42 38.6161 113.22 38.9251 112.978 39.189C112.743 39.4529 112.472 39.6814 112.165 39.8745C112.009 39.9775 111.848 40.0129 111.684 39.9807C111.521 39.9549 111.378 39.8713 111.257 39.7297C111.143 39.5816 111.104 39.4368 111.139 39.2952C111.182 39.1536 111.285 39.0313 111.449 38.9283C111.677 38.7867 111.877 38.6129 112.048 38.4069C112.219 38.2009 112.361 37.9499 112.475 37.6538C112.59 37.3577 112.675 37.0069 112.732 36.6014C112.789 36.1894 112.818 35.7099 112.818 35.1628V33.7531C112.818 33.5407 112.878 33.3798 112.999 33.2703C113.128 33.1545 113.309 33.0966 113.544 33.0966H117.414C117.649 33.0966 117.828 33.1545 117.949 33.2703C118.077 33.3798 118.141 33.5407 118.141 33.7531V39.3434C118.141 39.543 118.081 39.7007 117.959 39.8166C117.845 39.926 117.678 39.9807 117.457 39.9807Z" fill="#388E3C"/>
<path d="M120.514 39.9034C120.279 39.9034 120.097 39.8487 119.969 39.7393C119.847 39.6234 119.787 39.4593 119.787 39.2469V33.6566C119.787 33.4506 119.844 33.2929 119.958 33.1834C120.079 33.074 120.25 33.0193 120.471 33.0193C120.692 33.0193 120.859 33.074 120.974 33.1834C121.095 33.2929 121.155 33.4506 121.155 33.6566V35.9352H123.197C123.732 35.9352 124.191 36.0124 124.576 36.1669C124.961 36.3149 125.253 36.537 125.453 36.8331C125.659 37.1228 125.763 37.4832 125.763 37.9145C125.763 38.5582 125.535 39.0506 125.078 39.3917C124.629 39.7329 124.002 39.9034 123.197 39.9034H120.514ZM121.155 38.9186H123.026C123.511 38.9186 123.867 38.8382 124.095 38.6772C124.323 38.5099 124.437 38.2556 124.437 37.9145C124.437 37.5733 124.323 37.3223 124.095 37.1614C123.867 37.0005 123.511 36.92 123.026 36.92H121.155V38.9186Z" fill="#388E3C"/>
<path d="M127.664 39.9807C127.443 39.9807 127.272 39.926 127.151 39.8166C127.037 39.7007 126.98 39.543 126.98 39.3434V33.6566C126.98 33.4506 127.037 33.2929 127.151 33.1834C127.272 33.074 127.443 33.0193 127.664 33.0193C127.885 33.0193 128.052 33.074 128.166 33.1834C128.287 33.2929 128.348 33.4506 128.348 33.6566V35.9352H132.228V33.6566C132.228 33.4506 132.285 33.2929 132.399 33.1834C132.521 33.074 132.692 33.0193 132.913 33.0193C133.134 33.0193 133.301 33.074 133.415 33.1834C133.536 33.2929 133.597 33.4506 133.597 33.6566V39.3434C133.597 39.543 133.536 39.7007 133.415 39.8166C133.301 39.926 133.134 39.9807 132.913 39.9807C132.692 39.9807 132.521 39.926 132.399 39.8166C132.285 39.7007 132.228 39.543 132.228 39.3434V36.9683H128.348V39.3434C128.348 39.543 128.291 39.7007 128.177 39.8166C128.063 39.926 127.892 39.9807 127.664 39.9807Z" fill="#388E3C"/>
<path d="M135.323 39.9807C135.151 39.9807 135.013 39.9453 134.906 39.8745C134.806 39.8037 134.745 39.7103 134.724 39.5945C134.702 39.4722 134.727 39.337 134.799 39.189L137.621 33.5407C137.714 33.354 137.824 33.2221 137.952 33.1448C138.088 33.0611 138.241 33.0193 138.412 33.0193C138.576 33.0193 138.722 33.0611 138.85 33.1448C138.986 33.2221 139.1 33.354 139.192 33.5407L142.025 39.189C142.104 39.337 142.132 39.4722 142.111 39.5945C142.089 39.7168 142.029 39.8133 141.929 39.8841C141.829 39.9485 141.697 39.9807 141.533 39.9807C141.334 39.9807 141.177 39.9389 141.063 39.8552C140.956 39.7651 140.86 39.6299 140.774 39.4497L140.08 37.9917L140.657 38.3297H136.146L136.723 37.9917L136.039 39.4497C135.946 39.6363 135.85 39.7715 135.75 39.8552C135.65 39.9389 135.508 39.9807 135.323 39.9807ZM138.391 34.4386L136.894 37.6538L136.616 37.3448H140.186L139.919 37.6538L138.412 34.4386H138.391Z" fill="#388E3C"/>
<path d="M146.789 39.9807C146.568 39.9807 146.397 39.926 146.276 39.8166C146.162 39.7007 146.105 39.543 146.105 39.3434V33.6469C146.105 33.4409 146.162 33.2864 146.276 33.1834C146.397 33.074 146.568 33.0193 146.789 33.0193C147.01 33.0193 147.177 33.074 147.291 33.1834C147.412 33.2864 147.473 33.4409 147.473 33.6469V35.9834H148.692L148.424 36.1476L150.391 33.3379C150.491 33.2028 150.605 33.1126 150.733 33.0676C150.869 33.0225 151.001 33.0129 151.129 33.0386C151.257 33.0644 151.368 33.1191 151.46 33.2028C151.553 33.2864 151.603 33.3894 151.61 33.5117C151.624 33.634 151.582 33.766 151.482 33.9076L149.686 36.389L149.151 36.0317C149.615 36.0961 150.007 36.2474 150.327 36.4855C150.648 36.7237 150.922 37.0552 151.15 37.48L152.027 39.1021C152.12 39.263 152.148 39.4078 152.112 39.5366C152.084 39.6653 152.013 39.7683 151.899 39.8455C151.792 39.9163 151.667 39.9582 151.524 39.971C151.389 39.9839 151.254 39.9614 151.118 39.9034C150.99 39.8391 150.887 39.7329 150.808 39.5848L149.964 37.9434C149.793 37.6087 149.586 37.3706 149.344 37.229C149.109 37.0874 148.813 37.0166 148.456 37.0166H147.473V39.3434C147.473 39.543 147.416 39.7007 147.302 39.8166C147.188 39.926 147.017 39.9807 146.789 39.9807Z" fill="#388E3C"/>
<path d="M156.561 40C155.834 40 155.196 39.8552 154.647 39.5655C154.106 39.2759 153.685 38.8703 153.386 38.349C153.086 37.8211 152.937 37.2032 152.937 36.4952C152.937 35.9609 153.022 35.4814 153.193 35.0566C153.364 34.6253 153.607 34.2584 153.92 33.9559C154.241 33.6469 154.622 33.412 155.064 33.251C155.513 33.0837 156.012 33 156.561 33C157.295 33 157.933 33.1448 158.474 33.4345C159.016 33.7177 159.436 34.12 159.736 34.6414C160.035 35.1628 160.185 35.7775 160.185 36.4855C160.185 37.0198 160.099 37.5025 159.928 37.9338C159.757 38.3651 159.511 38.7352 159.19 39.0441C158.877 39.3531 158.496 39.5913 158.047 39.7586C157.605 39.9195 157.109 40 156.561 40ZM156.561 38.9379C157.024 38.9379 157.416 38.8414 157.737 38.6483C158.064 38.4552 158.314 38.1752 158.485 37.8083C158.663 37.4414 158.752 37.0037 158.752 36.4952C158.752 35.7228 158.56 35.1241 158.175 34.6993C157.797 34.2745 157.259 34.0621 156.561 34.0621C156.105 34.0621 155.713 34.1586 155.385 34.3517C155.057 34.5384 154.804 34.8152 154.626 35.1821C154.455 35.5425 154.369 35.9802 154.369 36.4952C154.369 37.2611 154.562 37.8598 154.946 38.291C155.331 38.7223 155.869 38.9379 156.561 38.9379Z" fill="#388E3C"/>
<path d="M162.217 39.9807C162.018 39.9807 161.865 39.9292 161.758 39.8262C161.651 39.7232 161.597 39.5816 161.597 39.4014V33.5986C161.597 33.412 161.654 33.2703 161.768 33.1738C161.882 33.0708 162.039 33.0193 162.239 33.0193C162.417 33.0193 162.556 33.0515 162.656 33.1159C162.762 33.1738 162.859 33.2768 162.944 33.4248L165.585 37.8372H165.243L167.883 33.4248C167.968 33.2768 168.061 33.1738 168.161 33.1159C168.261 33.0515 168.4 33.0193 168.578 33.0193C168.777 33.0193 168.931 33.0708 169.037 33.1738C169.144 33.2703 169.198 33.412 169.198 33.5986V39.4014C169.198 39.5816 169.144 39.7232 169.037 39.8262C168.938 39.9292 168.784 39.9807 168.578 39.9807C168.378 39.9807 168.225 39.9292 168.118 39.8262C168.011 39.7232 167.958 39.5816 167.958 39.4014V34.931H168.193L165.948 38.629C165.877 38.7384 165.802 38.8189 165.724 38.8703C165.645 38.9218 165.538 38.9476 165.403 38.9476C165.267 38.9476 165.157 38.9218 165.072 38.8703C164.986 38.8124 164.911 38.732 164.847 38.629L162.581 34.9214H162.837V39.4014C162.837 39.5816 162.784 39.7232 162.677 39.8262C162.577 39.9292 162.424 39.9807 162.217 39.9807Z" fill="#388E3C"/>
<path d="M171.541 39.9807C171.32 39.9807 171.149 39.926 171.028 39.8166C170.914 39.7007 170.857 39.543 170.857 39.3434V33.7531C170.857 33.5407 170.917 33.3798 171.038 33.2703C171.167 33.1545 171.348 33.0966 171.583 33.0966H176.683C176.918 33.0966 177.096 33.1545 177.217 33.2703C177.345 33.3798 177.409 33.5407 177.409 33.7531V39.3434C177.409 39.543 177.349 39.7007 177.228 39.8166C177.114 39.926 176.946 39.9807 176.725 39.9807C176.504 39.9807 176.333 39.926 176.212 39.8166C176.098 39.7007 176.041 39.543 176.041 39.3434V34.1297H172.225V39.3434C172.225 39.543 172.168 39.7007 172.054 39.8166C171.94 39.926 171.769 39.9807 171.541 39.9807Z" fill="#388E3C"/>
<path d="M179.116 39.9807C178.945 39.9807 178.806 39.9453 178.699 39.8745C178.599 39.8037 178.539 39.7103 178.517 39.5945C178.496 39.4722 178.521 39.337 178.592 39.189L181.414 33.5407C181.507 33.354 181.617 33.2221 181.746 33.1448C181.881 33.0611 182.034 33.0193 182.205 33.0193C182.369 33.0193 182.515 33.0611 182.644 33.1448C182.779 33.2221 182.893 33.354 182.986 33.5407L185.818 39.189C185.897 39.337 185.925 39.4722 185.904 39.5945C185.883 39.7168 185.822 39.8133 185.722 39.8841C185.622 39.9485 185.491 39.9807 185.327 39.9807C185.127 39.9807 184.97 39.9389 184.856 39.8552C184.749 39.7651 184.653 39.6299 184.568 39.4497L183.873 37.9917L184.45 38.3297H179.939L180.516 37.9917L179.832 39.4497C179.739 39.6363 179.643 39.7715 179.543 39.8552C179.444 39.9389 179.301 39.9807 179.116 39.9807ZM182.184 34.4386L180.687 37.6538L180.409 37.3448H183.98L183.713 37.6538L182.205 34.4386H182.184Z" fill="#388E3C"/>
<path d="M187.68 39.9807C187.459 39.9807 187.288 39.926 187.167 39.8166C187.053 39.7007 186.996 39.543 186.996 39.3434V33.6566C186.996 33.4506 187.053 33.2929 187.167 33.1834C187.288 33.074 187.459 33.0193 187.68 33.0193C187.901 33.0193 188.068 33.074 188.182 33.1834C188.304 33.2929 188.364 33.4506 188.364 33.6566V35.9352H192.245V33.6566C192.245 33.4506 192.302 33.2929 192.416 33.1834C192.537 33.074 192.708 33.0193 192.929 33.0193C193.15 33.0193 193.317 33.074 193.431 33.1834C193.552 33.2929 193.613 33.4506 193.613 33.6566V39.3434C193.613 39.543 193.552 39.7007 193.431 39.8166C193.317 39.926 193.15 39.9807 192.929 39.9807C192.708 39.9807 192.537 39.926 192.416 39.8166C192.302 39.7007 192.245 39.543 192.245 39.3434V36.9683H188.364V39.3434C188.364 39.543 188.307 39.7007 188.193 39.8166C188.079 39.926 187.908 39.9807 187.68 39.9807Z" fill="#388E3C"/>
<path d="M195.948 39.9807C195.727 39.9807 195.556 39.926 195.435 39.8166C195.321 39.7007 195.264 39.543 195.264 39.3434V33.6566C195.264 33.4506 195.321 33.2929 195.435 33.1834C195.556 33.074 195.727 33.0193 195.948 33.0193C196.169 33.0193 196.336 33.074 196.45 33.1834C196.572 33.2929 196.632 33.4506 196.632 33.6566V39.3434C196.632 39.543 196.575 39.7007 196.461 39.8166C196.347 39.926 196.176 39.9807 195.948 39.9807Z" fill="#388E3C"/>
<path d="M203.316 39.9807C203.095 39.9807 202.924 39.926 202.803 39.8166C202.689 39.7007 202.632 39.543 202.632 39.3434V37.1807H201.712C201.541 37.1807 201.388 37.1968 201.253 37.229C201.117 37.2611 200.996 37.3159 200.889 37.3931C200.782 37.4703 200.686 37.583 200.601 37.731L199.467 39.6041C199.375 39.7586 199.261 39.8616 199.125 39.9131C198.99 39.971 198.855 39.9871 198.719 39.9614C198.584 39.9421 198.466 39.8906 198.366 39.8069C198.267 39.7232 198.202 39.617 198.174 39.4883C198.153 39.3595 198.188 39.2179 198.281 39.0634L199.04 37.8083C199.197 37.5444 199.385 37.3448 199.606 37.2097C199.827 37.0745 200.084 37.0069 200.376 37.0069H200.74L200.718 37.1517C199.899 37.1517 199.261 36.9747 198.805 36.6207C198.356 36.2602 198.131 35.7646 198.131 35.1338C198.131 34.7025 198.231 34.3356 198.431 34.0331C198.63 33.7306 198.922 33.4989 199.307 33.3379C199.699 33.177 200.169 33.0966 200.718 33.0966H203.273C203.508 33.0966 203.686 33.1545 203.808 33.2703C203.936 33.3798 204 33.5407 204 33.7531V39.3434C204 39.543 203.939 39.7007 203.818 39.8166C203.704 39.926 203.537 39.9807 203.316 39.9807ZM200.953 36.2634H202.632V34.0717H200.953C200.462 34.0717 200.087 34.1651 199.831 34.3517C199.581 34.532 199.457 34.8023 199.457 35.1628C199.457 35.5297 199.581 35.8064 199.831 35.9931C200.087 36.1733 200.462 36.2634 200.953 36.2634Z" fill="#388E3C"/>
</g>
<defs>
<clipPath id="clip0_822_24">
<rect width="208" height="40" fill="white"/>
</clipPath>
</defs>
</svg>

