<svg width="241" height="40" viewBox="0 0 241 40" fill="none" xmlns="http://www.w3.org/2000/svg">
<path d="M61.1427 11.653C60.7116 10.7881 60.1079 10.0227 59.3698 9.40503C58.6316 8.78741 57.775 8.33092 56.8537 8.06431C53.6021 7.15705 49.2333 8.95141 46.8794 10.2014C46.7275 7.58814 45.5757 5.13707 43.6676 3.36673C42.1644 2.07615 40.4149 1.11138 38.5275 0.532215C36.6402 -0.0469521 34.6553 -0.22817 32.6958 -0.000206225C23.9384 0.382858 18.9512 3.70947 16.1185 8.91108C14.8378 11.3077 14.3751 14.0644 14.8019 16.7538C11.9692 16.1288 6.52318 15.3829 3.2516 18.145C2.19915 19.0868 1.3629 20.2495 0.80126 21.5519C0.239623 22.8543 -0.0338463 24.265 -3.92762e-05 25.6853C-0.0390689 26.8466 0.170676 28.0027 0.614836 29.0745C1.05899 30.1463 1.72708 31.1084 2.57334 31.8949C9.9743 39.2538 29.4043 39.5966 37.0247 37.8425C37.703 37.6812 38.4211 37.4796 39.1792 37.2579C40.4758 37.2579 42.4109 37.6208 42.4109 39.395C42.4109 41.1691 42.8896 37.9433 42.9495 35.9675C50.2108 33.1248 58.7688 27.903 61.5815 20.7458C62.1937 19.2953 62.4722 17.7234 62.3962 16.1484C62.3202 14.5734 61.8916 13.0364 61.1427 11.653ZM51.8665 28.2256C52.998 26.2895 53.5972 24.0831 53.6021 21.8345C50.3504 29.899 48.5151 28.9514 44.5055 30.1611C35.7081 32.782 35.3091 24.1127 36.7055 18.9917C32.3767 24.5764 34.7107 31.8949 34.7107 31.8949C28.1475 35.9272 18.2331 31.8949 18.2331 31.8949C19.3905 33.3793 20.7703 34.6717 22.3225 35.7256C15.141 34.9595 7.48072 33.2256 4.08944 29.899C3.52342 29.3992 3.07547 28.7776 2.77857 28.0798C2.48167 27.3819 2.34337 26.6257 2.37385 25.8667C2.32195 24.8426 2.49541 23.8195 2.88175 22.8713C3.2681 21.923 3.8577 21.0731 4.60811 20.3829C7.62036 17.903 14.1835 19.4353 16.0786 20.0603L18.8714 20.9474L17.5747 18.0038C17.17 16.722 17.0233 15.3713 17.1432 14.0313C17.2631 12.6912 17.6472 11.389 18.273 10.2014C20.5072 5.70544 25.3348 3.08447 32.8554 2.56028C34.4742 2.33685 36.1218 2.47371 37.6828 2.96127C39.2437 3.44883 40.6804 4.27531 41.8922 5.38286C42.8149 6.27106 43.5138 7.3697 43.9303 8.58685C44.3467 9.804 44.4687 11.1043 44.286 12.3788C44.286 13.1853 44.286 14.0119 44.286 14.778C44.1264 12.9232 51.0287 11.1087 52.2655 10.9071C53.0024 10.6974 53.7741 10.6437 54.5324 10.7492C55.2908 10.8547 56.0195 11.1172 56.6729 11.5203C57.3263 11.9233 57.8904 12.4582 58.33 13.0916C58.7696 13.725 59.0751 14.4432 59.2276 15.2014C61.003 21.2296 56.1954 25.2619 51.8665 28.2256Z" fill="white"/>
<path d="M90.9261 7.05616C90.6886 7.05198 90.4531 7.01119 90.2278 6.9352C86.4877 5.8961 82.5745 5.65578 78.7374 6.22955C77.2612 6.45133 75.6653 6.77391 73.9697 7.19729C74.0894 7.95097 74.1561 8.7123 74.1692 9.47552C74.1692 11.4916 74.0495 14.2941 73.7702 17.8425L83.7445 16.9352C86.657 16.6529 88.4524 16.4916 89.1107 16.4916C89.731 16.4711 90.3362 16.687 90.8064 17.0965C91.0263 17.3055 91.2004 17.5588 91.3172 17.8402C91.434 18.1215 91.4911 18.4245 91.4846 18.7296C91.5126 19.0108 91.4817 19.2948 91.3941 19.5631C91.3064 19.8315 91.1639 20.0783 90.9758 20.2874C90.7877 20.4965 90.5582 20.6633 90.3022 20.777C90.0462 20.8907 89.7694 20.9487 89.4897 20.9473L84.0637 21.411L73.5507 22.3384C73.5507 23.3666 73.4311 24.3546 73.3912 25.282C73.3513 26.2094 73.3912 27.0562 73.3912 27.8626C73.1758 29.7753 73.4222 31.7123 74.1093 33.5078C74.4684 33.911 75.6653 34.1126 77.6801 34.1126H81.9292C83.8243 34.1126 85.2407 34.1126 86.1982 34.1126C86.6468 34.1018 87.0937 34.0546 87.5348 33.9715C87.9774 33.8995 88.4236 33.8524 88.8713 33.8304C90.4672 33.8304 91.2851 34.5965 91.2851 36.1086C91.3101 36.3882 91.2771 36.67 91.1881 36.936C91.0991 37.2019 90.9561 37.4461 90.7683 37.653C90.5805 37.8599 90.352 38.0248 90.0975 38.1373C89.843 38.2498 89.568 38.3073 89.2903 38.3062C86.218 38.6594 83.125 38.7942 80.0341 38.7094C75.3262 38.7094 72.294 38.1247 70.9574 36.9352C69.6209 35.7457 68.7631 32.661 68.7631 28.0037C68.7631 27.0763 68.7631 25.9876 68.7631 24.9392C68.7631 23.8908 68.8628 22.6408 68.9426 21.3707C68.7679 21.0425 68.6787 20.6748 68.6833 20.3021C68.6861 19.8194 68.8474 19.3514 69.1421 18.9715C69.4413 14.7779 69.581 11.6731 69.581 9.67713C69.5553 8.88038 69.482 8.08592 69.3615 7.2981C69.2302 6.51845 69.1569 5.72995 69.1421 4.93923C69.1421 3.20536 69.9001 2.33842 71.4162 2.33842C72.0238 2.33008 72.6107 2.56153 73.052 2.98358C74.7567 2.48098 76.4884 2.0771 78.2387 1.77391C79.7521 1.5561 81.2783 1.44159 82.8069 1.43116C85.8019 1.33189 88.7913 1.75474 91.6442 2.68116C92.0868 2.79155 92.4787 3.05182 92.7545 3.41865C93.0304 3.78548 93.1736 4.23674 93.1603 4.69729C93.1608 5.26637 92.9468 5.81428 92.5618 6.22955C92.3668 6.48122 92.1189 6.68593 91.836 6.82889C91.5531 6.97185 91.2423 7.04948 90.9261 7.05616Z" fill="white"/>
<path d="M131.661 38.306C131.251 38.2983 130.849 38.1804 130.499 37.9642C130.148 37.7481 129.861 37.4416 129.666 37.0761C129.058 35.9943 128.64 34.8143 128.429 33.5882L127.671 29.7576C126.993 27.392 125.969 22.271 124.599 14.3947L120.051 27.5197L118.695 31.5519C118.255 32.9498 117.681 34.3004 116.979 35.5842C116.751 36.0822 116.388 36.5051 115.933 36.8046C115.478 37.1041 114.949 37.2681 114.406 37.2778C113.954 37.2691 113.515 37.1295 113.14 36.8758C112.765 36.622 112.471 36.2646 112.291 35.8463C111.901 35.103 111.594 34.3188 111.373 33.5076L110.735 31.0882C109.206 25.9673 107.876 20.4834 106.745 14.6366L105.927 18.5278L102.915 30.2415C102.675 32.2818 102.295 34.3028 101.778 36.2899C101.642 36.7867 101.347 37.224 100.939 37.534C100.531 37.8439 100.034 38.009 99.5238 38.0036C99.1902 38.0167 98.8579 37.9548 98.5508 37.8223C98.2438 37.6898 97.9697 37.49 97.7484 37.2374C97.3693 36.7892 97.17 36.2138 97.1898 35.6245C97.2919 32.5818 97.8156 29.5686 98.7458 26.6729L101.259 17.7415L102.576 10.8866C102.892 8.6762 103.609 6.54369 104.691 4.5963C104.932 4.21205 105.265 3.89472 105.659 3.67297C106.052 3.45121 106.494 3.33202 106.945 3.32614C107.434 3.32913 107.91 3.48607 108.307 3.77512C108.704 4.06418 109.002 4.471 109.159 4.93904C110.089 7.49792 110.757 10.1461 111.154 12.8423C112.061 18.0871 113.307 23.2662 114.884 28.3463C117.151 22.6486 119.076 16.8182 120.649 10.8866L121.348 7.70114C121.543 6.6245 121.899 5.58427 122.405 4.61646C122.618 4.13638 122.962 3.72766 123.396 3.43837C123.831 3.14907 124.338 2.99123 124.859 2.9834C126.189 2.9834 127.186 4.19308 127.851 6.61243C128.238 8.30821 128.531 10.0246 128.729 11.7536C129.45 17.4317 130.57 23.0507 132.08 28.5681L133.197 32.2576C133.602 33.4699 133.889 34.719 134.055 35.9874C134.056 36.2886 133.99 36.5862 133.863 36.8584C133.735 37.1305 133.548 37.3703 133.317 37.56C132.875 38.0065 132.285 38.2722 131.661 38.306Z" fill="white"/>
<path d="M154.064 37.7215C150.118 37.8345 146.261 36.5349 143.172 34.0521C141.663 32.8576 140.448 31.3255 139.624 29.5763C138.801 27.8271 138.39 25.9085 138.424 23.9715C138.414 19.0045 140.066 14.1801 143.112 10.282C144.573 8.16668 146.52 6.44024 148.784 5.25008C151.049 4.05992 153.566 3.44139 156.118 3.44731C161.106 3.44731 164.816 4.52258 167.25 6.67311C169.803 8.91102 171.06 12.4392 171.06 17.2578C171.103 22.1341 169.6 26.8964 166.771 30.8465C165.394 32.9786 163.509 34.7259 161.288 35.9275C159.067 37.129 156.583 37.746 154.064 37.7215ZM156.058 7.86263C154.17 7.88944 152.317 8.38978 150.667 9.31877C149.016 10.2477 147.62 11.5763 146.603 13.1852C144.267 16.276 143.011 20.0622 143.032 23.9513C143 25.2694 143.278 26.5763 143.843 27.7645C144.409 28.9528 145.245 29.9883 146.284 30.786C148.498 32.4854 151.225 33.3612 154.004 33.2659C155.853 33.2464 157.666 32.7442 159.267 31.8082C160.868 30.8721 162.202 29.5338 163.14 27.9231C165.271 24.7714 166.392 21.0343 166.352 17.2175C166.501 15.8921 166.364 14.5497 165.951 13.2829C165.538 12.016 164.858 10.8547 163.958 9.87876C161.656 8.3075 158.884 7.59472 156.118 7.86263H156.058Z" fill="white"/>
<path d="M208.124 31.5725C208.079 32.7417 207.959 33.9068 207.765 35.0604C207.753 35.3677 207.679 35.6693 207.549 35.9474C207.419 36.2255 207.235 36.4744 207.008 36.6793C206.781 36.8843 206.516 37.0411 206.228 37.1405C205.94 37.2399 205.635 37.2798 205.332 37.258C204.182 37.1075 203.122 36.5504 202.339 35.6854C194.55 28.2787 187.433 20.1819 181.074 11.4918L180.934 16.4314V21.391C180.934 22.6007 180.934 24.4152 180.934 26.8144C180.934 29.2136 180.934 31.0483 180.934 32.258C180.934 36.1693 180.156 38.1047 178.58 38.1047C178.215 38.13 177.848 38.0766 177.504 37.948C177.16 37.8194 176.847 37.6186 176.586 37.3588C176.368 37.1521 176.196 36.902 176.079 36.6243C175.962 36.3467 175.904 36.0475 175.907 35.7459C175.907 35.1209 175.907 34.2136 176.067 32.9838C176.226 31.7539 176.207 30.8265 176.207 30.2015C176.207 29.5765 176.207 27.9636 176.207 26.1693C176.207 24.3749 176.207 23.0241 176.207 22.137C176.207 21.2499 176.207 19.7378 176.207 17.7822C176.207 15.8265 176.207 14.4152 176.207 13.4475C176.207 12.4797 176.207 11.1693 175.927 9.41523C175.648 7.6612 175.648 6.24991 175.648 5.38297C175.66 5.03021 175.746 4.68406 175.901 4.36766C176.056 4.05127 176.275 3.77192 176.546 3.54829C177.085 3.03014 177.797 2.73518 178.541 2.72168C179.352 2.72168 180.349 3.56845 181.533 5.262C185.323 10.6652 188.714 15.1814 191.747 18.7701C195.418 23.0967 199.369 27.1716 203.576 30.9676C203.629 30.041 203.629 29.112 203.576 28.1854V25.4435C203.705 20.3143 203.498 15.1822 202.958 10.0806C202.795 9.30986 202.588 8.54921 202.339 7.80232C202.081 7.05462 201.927 6.27434 201.88 5.48378C201.829 5.1479 201.855 4.80443 201.956 4.48039C202.058 4.15635 202.233 3.86057 202.467 3.61631C202.7 3.37205 202.987 3.18598 203.304 3.07272C203.622 2.95947 203.96 2.92212 204.294 2.96362C206.954 2.96362 208.284 7.66792 208.284 17.0765C208.284 18.6894 208.284 21.1088 208.284 24.3144C208.284 27.5201 208.124 29.9596 208.124 31.5725Z" fill="white"/>
<path d="M238.686 37.0566C237.29 37.0566 236.073 35.3429 235.035 31.9155C234.656 30.605 234.158 28.3268 233.559 25.0606C232.003 25.2623 229.988 25.6252 227.575 26.1494L221.59 27.3389C220.812 29.2542 219.595 32.0364 217.6 35.6856C217.414 36.0582 217.129 36.3708 216.776 36.5882C216.424 36.8055 216.018 36.9188 215.605 36.9155C214.999 36.9156 214.415 36.6853 213.97 36.2703C213.744 36.0808 213.563 35.8434 213.439 35.5751C213.315 35.3067 213.251 35.0141 213.251 34.7179C214.09 31.9393 215.241 29.2673 216.683 26.7542C216.421 26.3697 216.288 25.9103 216.304 25.4437C216.304 24.2744 217.042 23.5284 218.538 23.1856C220.28 20.0808 222.468 16.5123 225.101 12.48C228.718 6.96924 230.959 4.21387 231.824 4.21387C233.021 4.21387 233.819 5.02032 234.277 6.61306L235.714 13.9316L239.105 29.0727L240.402 32.5203C240.728 33.2649 240.95 34.0521 241.06 34.859C241.066 35.157 241.006 35.4526 240.885 35.7245C240.765 35.9965 240.586 36.2379 240.362 36.4316C239.905 36.8525 239.304 37.0767 238.686 37.0566ZM230.647 12.0969L224.183 22.1776C226.019 21.734 228.791 21.1897 232.522 20.5445L230.647 12.0969Z" fill="white"/>
</svg>
