<svg width="208" height="40" viewBox="0 0 208 40" fill="none" xmlns="http://www.w3.org/2000/svg">
<g clip-path="url(#clip0_822_1367)">
<path d="M61.1424 11.653C60.7113 10.7881 60.1077 10.0227 59.3695 9.40503C58.6314 8.78741 57.7747 8.33092 56.8535 8.06431C53.6018 7.15705 49.2331 8.95141 46.8791 10.2014C46.7272 7.58814 45.5754 5.13707 43.6674 3.36673C42.1641 2.07615 40.4146 1.11138 38.5273 0.532215C36.64 -0.0469521 34.6551 -0.22817 32.6956 -0.000206225C23.9381 0.382858 18.951 3.70947 16.1182 8.91108C14.8376 11.3077 14.3748 14.0644 14.8016 16.7538C11.9689 16.1288 6.52293 15.3829 3.25135 18.145C2.19891 19.0868 1.36265 20.2495 0.801016 21.5519C0.239379 22.8543 -0.0340904 24.265 -0.000283417 25.6853C-0.039313 26.8466 0.170432 28.0027 0.614591 29.0745C1.05875 30.1463 1.72683 31.1084 2.5731 31.8949C9.97406 39.2538 29.4041 39.5966 37.0245 37.8425C37.7027 37.6812 38.4209 37.4796 39.1789 37.2579C40.4756 37.2579 42.4106 37.6208 42.4106 39.395C42.4106 41.1691 42.8894 37.9433 42.9492 35.9675C50.2105 33.1248 58.7685 27.903 61.5813 20.7458C62.1934 19.2953 62.472 17.7234 62.396 16.1484C62.32 14.5734 61.8913 13.0364 61.1424 11.653ZM51.8663 28.2256C52.9978 26.2895 53.597 24.0831 53.6018 21.8345C50.3502 29.899 48.5149 28.9514 44.5052 30.1611C35.7079 32.782 35.3089 24.1127 36.7053 18.9917C32.3764 24.5764 34.7104 31.8949 34.7104 31.8949C28.1473 35.9272 18.2328 31.8949 18.2328 31.8949C19.3903 33.3793 20.7701 34.6717 22.3223 35.7256C15.1408 34.9595 7.48047 33.2256 4.0892 29.899C3.52317 29.3992 3.07523 28.7776 2.77833 28.0798C2.48143 27.3819 2.34313 26.6257 2.37361 25.8667C2.3217 24.8426 2.49517 23.8195 2.88151 22.8713C3.26785 21.923 3.85746 21.0731 4.60786 20.3829C7.62011 17.903 14.1832 19.4353 16.0784 20.0603L18.8712 20.9474L17.5745 18.0038C17.1698 16.722 17.023 15.3713 17.143 14.0313C17.2629 12.6912 17.647 11.389 18.2727 10.2014C20.507 5.70544 25.3345 3.08447 32.8552 2.56028C34.474 2.33685 36.1215 2.47371 37.6825 2.96127C39.2435 3.44883 40.6802 4.27531 41.8919 5.38286C42.8147 6.27106 43.5135 7.3697 43.93 8.58685C44.3465 9.804 44.4685 11.1043 44.2858 12.3788C44.2858 13.1853 44.2858 14.0119 44.2858 14.778C44.1262 12.9232 51.0284 11.1087 52.2653 10.9071C53.0021 10.6974 53.7739 10.6437 54.5322 10.7492C55.2906 10.8547 56.0192 11.1172 56.6726 11.5203C57.326 11.9233 57.8902 12.4582 58.3298 13.0916C58.7693 13.725 59.0749 14.4432 59.2273 15.2014C61.0028 21.2296 56.1951 25.2619 51.8663 28.2256Z" fill="white"/>
<path d="M85.3564 5.38235C85.1818 5.3791 85.0087 5.3474 84.843 5.28834C82.0927 4.48083 79.2151 4.29407 76.3935 4.73997C75.3079 4.91231 74.1344 5.163 72.8875 5.49202C72.9756 6.07773 73.0246 6.66937 73.0342 7.26249C73.0342 8.82928 72.9462 11.0071 72.7408 13.7647L80.0755 13.0596C82.2172 12.8403 83.5374 12.7149 84.0215 12.7149C84.4776 12.699 84.9227 12.8668 85.2684 13.1849C85.4301 13.3474 85.5581 13.5443 85.644 13.7629C85.73 13.9815 85.7719 14.217 85.7672 14.454C85.7877 14.6726 85.765 14.8933 85.7006 15.1018C85.6361 15.3104 85.5313 15.5022 85.393 15.6647C85.2547 15.8272 85.0859 15.9568 84.8977 16.0452C84.7094 16.1335 84.5059 16.1786 84.3002 16.1775L80.3102 16.5379L72.5794 17.2586C72.5794 18.0577 72.4914 18.8254 72.4621 19.5461C72.4327 20.2668 72.4621 20.9249 72.4621 21.5516C72.3037 23.038 72.4849 24.5433 72.9902 25.9386C73.2542 26.252 74.1344 26.4086 75.616 26.4086H78.7406C80.1341 26.4086 81.1757 26.4086 81.8798 26.4086C82.2096 26.4002 82.5383 26.3636 82.8626 26.299C83.1881 26.243 83.5162 26.2064 83.8455 26.1893C85.019 26.1893 85.6205 26.7847 85.6205 27.9597C85.6388 28.177 85.6145 28.396 85.5491 28.6027C85.4837 28.8094 85.3785 28.9992 85.2404 29.16C85.1023 29.3207 84.9343 29.4489 84.7472 29.5363C84.56 29.6237 84.3578 29.6684 84.1535 29.6675C81.8943 29.9421 79.6199 30.0468 77.347 29.9809C73.885 29.9809 71.6553 29.5265 70.6724 28.6021C69.6896 27.6777 69.0588 25.2805 69.0588 21.6613C69.0588 20.9405 69.0588 20.0945 69.0588 19.2798C69.0588 18.465 69.1322 17.4936 69.1908 16.5065C69.0624 16.2515 68.9967 15.9657 69.0001 15.6761C69.0022 15.301 69.1208 14.9373 69.3375 14.6421C69.5576 11.3831 69.6602 8.97029 69.6602 7.41917C69.6414 6.8 69.5875 6.1826 69.4989 5.57036C69.4023 4.96447 69.3484 4.35171 69.3375 3.73722C69.3375 2.38979 69.895 1.71607 71.0098 1.71607C71.4566 1.70958 71.8881 1.88945 72.2127 2.21744C73.4663 1.82685 74.7397 1.51299 76.0267 1.27737C77.1396 1.1081 78.2619 1.01912 79.386 1.01101C81.5883 0.933866 83.7866 1.26247 85.8845 1.98242C86.21 2.0682 86.4981 2.27047 86.701 2.55554C86.9038 2.84062 87.0091 3.1913 86.9994 3.54921C86.9998 3.99145 86.8424 4.41725 86.5593 4.73997C86.4159 4.93554 86.2336 5.09463 86.0255 5.20573C85.8175 5.31682 85.589 5.37715 85.3564 5.38235Z" fill="white"/>
<path d="M118.117 30C117.794 29.9941 117.478 29.904 117.203 29.7388C116.927 29.5736 116.701 29.3393 116.548 29.0599C116.069 28.233 115.74 27.331 115.575 26.3938L114.979 23.4658C114.445 21.6575 113.639 17.7431 112.562 11.7226L108.984 21.7551L107.917 24.8373C107.572 25.9058 107.12 26.9382 106.568 27.9195C106.388 28.3002 106.103 28.6234 105.745 28.8524C105.387 29.0813 104.97 29.2066 104.543 29.214C104.188 29.2074 103.843 29.1007 103.548 28.9068C103.253 28.7128 103.021 28.4396 102.88 28.1199C102.573 27.5517 102.331 26.9522 102.158 26.3322L101.656 24.4829C100.453 20.5685 99.4068 16.3767 98.5176 11.9075L97.8742 14.8818L95.5047 23.8356C95.3159 25.3952 95.0171 26.94 94.6102 28.4589C94.503 28.8387 94.271 29.173 93.9504 29.4099C93.6297 29.6468 93.2383 29.773 92.837 29.7688C92.5746 29.7789 92.3132 29.7316 92.0717 29.6303C91.8301 29.529 91.6145 29.3763 91.4404 29.1832C91.1422 28.8406 90.9855 28.4008 91.0011 27.9503C91.0813 25.6245 91.4933 23.3213 92.225 21.1079L94.2022 14.2808L95.2379 9.0411C95.4863 7.35148 96.0502 5.72143 96.9013 4.23288C97.0915 3.93916 97.3532 3.6966 97.6628 3.52709C97.9724 3.35759 98.3201 3.26648 98.6745 3.26199C99.0593 3.26427 99.4338 3.38423 99.7459 3.60518C100.058 3.82613 100.292 4.1371 100.416 4.49486C101.147 6.45082 101.673 8.47503 101.986 10.536C102.699 14.545 103.679 18.5039 104.92 22.387C106.703 18.0318 108.217 13.5751 109.455 9.0411L110.004 6.60616C110.157 5.7832 110.438 4.98806 110.836 4.24829C111.003 3.88132 111.274 3.5689 111.616 3.34777C111.957 3.12664 112.357 3.00598 112.766 3C113.812 3 114.597 3.92466 115.12 5.77397C115.425 7.0702 115.655 8.38219 115.81 9.70377C116.377 14.044 117.258 18.3391 118.446 22.5565L119.325 25.3767C119.644 26.3034 119.869 27.2582 120 28.2277C120.001 28.458 119.949 28.6855 119.849 28.8935C119.748 29.1015 119.601 29.2847 119.419 29.4298C119.072 29.7711 118.608 29.9742 118.117 30Z" fill="white"/>
<path d="M135.46 29.9946C132.317 30.0837 129.244 29.0601 126.784 27.1046C125.581 26.1638 124.614 24.9571 123.958 23.5794C123.302 22.2017 122.974 20.6906 123.002 19.165C122.994 15.253 124.31 11.4532 126.736 8.38308C127.9 6.71704 129.451 5.35729 131.255 4.41991C133.059 3.48253 135.063 2.99537 137.097 3.00003C141.07 3.00003 144.025 3.84692 145.964 5.5407C147.998 7.30329 148.999 10.0821 148.999 13.8773C149.034 17.7179 147.837 21.4687 145.583 24.5798C144.486 26.2591 142.984 27.6353 141.215 28.5817C139.446 29.528 137.467 30.0139 135.46 29.9946ZM137.049 6.47757C135.545 6.49869 134.069 6.89276 132.754 7.62444C131.439 8.35611 130.327 9.40249 129.517 10.6697C127.656 13.104 126.656 16.0861 126.672 19.1492C126.647 20.1873 126.868 21.2166 127.319 22.1525C127.769 23.0883 128.435 23.9039 129.263 24.5322C131.027 25.8706 133.199 26.5604 135.412 26.4853C136.886 26.47 138.33 26.0745 139.605 25.3373C140.88 24.6 141.943 23.5459 142.691 22.2774C144.388 19.795 145.281 16.8517 145.249 13.8455C145.368 12.8016 145.259 11.7444 144.93 10.7466C144.6 9.7488 144.059 8.83411 143.342 8.06549C141.508 6.82796 139.3 6.26657 137.097 6.47757H137.049Z" fill="white"/>
<path d="M177.878 25.0116C177.843 25.9037 177.751 26.7925 177.603 27.6727C177.593 27.9071 177.537 28.1373 177.437 28.3494C177.338 28.5616 177.197 28.7515 177.023 28.9079C176.849 29.0642 176.646 29.1838 176.425 29.2597C176.204 29.3355 175.971 29.366 175.738 29.3493C174.858 29.2345 174.045 28.8095 173.446 28.1495C167.48 22.4986 162.028 16.3212 157.156 9.69116L157.05 13.4597V17.2437C157.05 18.1666 157.05 19.551 157.05 21.3815C157.05 23.2119 157.05 24.6117 157.05 25.5346C157.05 28.5187 156.454 29.9954 155.246 29.9954C154.966 30.0146 154.685 29.9738 154.422 29.8757C154.158 29.7776 153.918 29.6244 153.718 29.4262C153.552 29.2685 153.419 29.0777 153.33 28.8659C153.241 28.654 153.196 28.4258 153.199 28.1957C153.199 27.7188 153.199 27.0266 153.321 26.0883C153.443 25.15 153.428 24.4425 153.428 23.9656C153.428 23.4888 153.428 22.2582 153.428 20.8892C153.428 19.5202 153.428 18.4896 153.428 17.8128C153.428 17.136 153.428 15.9824 153.428 14.4903C153.428 12.9983 153.428 11.9215 153.428 11.1832C153.428 10.4449 153.428 9.44504 153.214 8.10681C153 6.76858 153 5.69184 153 5.03042C153.009 4.76128 153.075 4.49719 153.194 4.2558C153.312 4.01441 153.481 3.80128 153.688 3.63066C154.101 3.23534 154.646 3.0103 155.216 3C155.837 3 156.601 3.64604 157.508 4.93813C160.411 9.0605 163.009 12.5061 165.332 15.244C168.144 18.545 171.171 21.6539 174.394 24.5501C174.434 23.8432 174.434 23.1344 174.394 22.4274V20.3355C174.492 16.4222 174.334 12.5067 173.92 8.61442C173.795 8.02642 173.637 7.44609 173.446 6.87626C173.248 6.3058 173.13 5.71049 173.095 5.10733C173.055 4.85107 173.075 4.58902 173.153 4.3418C173.231 4.09457 173.364 3.86891 173.544 3.68255C173.723 3.4962 173.943 3.35423 174.186 3.26783C174.428 3.18142 174.688 3.15293 174.944 3.18458C176.981 3.18458 178 6.77371 178 13.952C178 15.1825 178 17.0284 178 19.4741C178 21.9198 177.878 23.781 177.878 25.0116Z" fill="white"/>
<path d="M202.122 28.9991C201.017 28.9991 200.054 27.6946 199.234 25.0858C198.934 24.0883 198.539 22.3541 198.066 19.868C196.835 20.0215 195.241 20.2977 193.331 20.6967L188.597 21.6022C187.981 23.0601 187.019 25.1778 185.44 27.9555C185.293 28.2391 185.068 28.4771 184.789 28.6425C184.51 28.8079 184.189 28.8942 183.862 28.8916C183.383 28.8917 182.921 28.7164 182.568 28.4006C182.39 28.2563 182.247 28.0756 182.149 27.8713C182.05 27.6671 182 27.4443 182 27.2189C182.663 25.1039 183.574 23.07 184.714 21.1571C184.507 20.8645 184.402 20.5148 184.415 20.1596C184.415 19.2695 184.999 18.7017 186.182 18.4408C187.56 16.0775 189.291 13.3612 191.374 10.292C194.236 6.09732 196.009 4 196.693 4C197.64 4 198.271 4.61385 198.634 5.8262L199.77 11.3969L202.453 22.9219L203.479 25.5461C203.737 26.1129 203.913 26.7121 204 27.3263C204.004 27.5531 203.957 27.7781 203.862 27.9851C203.766 28.1921 203.625 28.3759 203.447 28.5233C203.086 28.8437 202.61 29.0143 202.122 28.9991ZM195.762 10.0004L190.648 17.6735C192.1 17.3359 194.294 16.9215 197.245 16.4305L195.762 10.0004Z" fill="white"/>
<path d="M71.9837 39.9807C71.7873 39.9807 71.6353 39.926 71.5276 39.8166C71.4262 39.7007 71.3755 39.543 71.3755 39.3434V34.1297H69.5226C69.3579 34.1297 69.2281 34.0846 69.133 33.9945C69.0443 33.8979 69 33.7692 69 33.6083C69 33.4409 69.0443 33.3154 69.133 33.2317C69.2281 33.1416 69.3579 33.0966 69.5226 33.0966H74.4448C74.6095 33.0966 74.7362 33.1416 74.8248 33.2317C74.9199 33.3154 74.9674 33.4409 74.9674 33.6083C74.9674 33.7692 74.9199 33.8979 74.8248 33.9945C74.7362 34.0846 74.6095 34.1297 74.4448 34.1297H72.5918V39.3434C72.5918 39.543 72.5411 39.7007 72.4398 39.8166C72.3384 39.926 72.1864 39.9807 71.9837 39.9807Z" fill="white"/>
<path d="M76.3081 39.9034C76.099 39.9034 75.9375 39.8487 75.8235 39.7393C75.7158 39.6234 75.6619 39.4593 75.6619 39.2469V33.7531C75.6619 33.5407 75.7158 33.3798 75.8235 33.2703C75.9375 33.1545 76.099 33.0966 76.3081 33.0966H79.7004C79.8587 33.0966 79.9791 33.1384 80.0614 33.2221C80.1501 33.3057 80.1945 33.4248 80.1945 33.5793C80.1945 33.7402 80.1501 33.8657 80.0614 33.9559C79.9791 34.0395 79.8587 34.0814 79.7004 34.0814H76.8307V35.9545H79.4913C79.656 35.9545 79.7795 35.9963 79.8619 36.08C79.9442 36.1637 79.9854 36.286 79.9854 36.4469C79.9854 36.6078 79.9442 36.7301 79.8619 36.8138C79.7795 36.8975 79.656 36.9393 79.4913 36.9393H76.8307V38.9186H79.7004C79.8587 38.9186 79.9791 38.9605 80.0614 39.0441C80.1501 39.1278 80.1945 39.2501 80.1945 39.411C80.1945 39.572 80.1501 39.6943 80.0614 39.7779C79.9791 39.8616 79.8587 39.9034 79.7004 39.9034H76.3081Z" fill="white"/>
<path d="M81.9398 39.9807C81.7434 39.9807 81.5914 39.926 81.4837 39.8166C81.3824 39.7007 81.3317 39.543 81.3317 39.3434V33.6469C81.3317 33.4409 81.3824 33.2864 81.4837 33.1834C81.5914 33.074 81.7434 33.0193 81.9398 33.0193C82.1362 33.0193 82.2851 33.074 82.3864 33.1834C82.4941 33.2864 82.548 33.4409 82.548 33.6469V35.9834H83.6312L83.3937 36.1476L85.1421 33.3379C85.2308 33.2028 85.3321 33.1126 85.4461 33.0676C85.5665 33.0225 85.6837 33.0129 85.7977 33.0386C85.9117 33.0644 86.0099 33.1191 86.0923 33.2028C86.1746 33.2864 86.219 33.3894 86.2253 33.5117C86.238 33.634 86.2 33.766 86.1113 33.9076L84.5149 36.389L84.0398 36.0317C84.4516 36.0961 84.8 36.2474 85.0851 36.4855C85.3701 36.7237 85.614 37.0552 85.8167 37.48L86.5959 39.1021C86.6783 39.263 86.7036 39.4078 86.6719 39.5366C86.6466 39.6653 86.5832 39.7683 86.4819 39.8455C86.3869 39.9163 86.276 39.9582 86.1493 39.971C86.0289 39.9839 85.9086 39.9614 85.7882 39.9034C85.6742 39.8391 85.5823 39.7329 85.5126 39.5848L84.762 37.9434C84.6099 37.6087 84.4262 37.3706 84.2108 37.229C84.0018 37.0874 83.7389 37.0166 83.4222 37.0166H82.548V39.3434C82.548 39.543 82.4973 39.7007 82.3959 39.8166C82.2946 39.926 82.1425 39.9807 81.9398 39.9807Z" fill="white"/>
<path d="M90.7399 40C90.0431 40 89.4444 39.8584 88.944 39.5752C88.4499 39.2855 88.0698 38.88 87.8037 38.3586C87.5377 37.8308 87.4046 37.2097 87.4046 36.4952C87.4046 35.9609 87.4806 35.4814 87.6327 35.0566C87.7847 34.6253 88.0033 34.2584 88.2883 33.9559C88.5734 33.6469 88.9218 33.412 89.3336 33.251C89.7517 33.0837 90.2204 33 90.7399 33C91.0883 33 91.4304 33.0451 91.7661 33.1352C92.1019 33.2253 92.3964 33.354 92.6498 33.5214C92.7829 33.6051 92.8715 33.708 92.9159 33.8303C92.9602 33.9462 92.9697 34.0621 92.9444 34.1779C92.9191 34.2874 92.8652 34.3807 92.7829 34.4579C92.7068 34.5352 92.6087 34.5802 92.4883 34.5931C92.3743 34.5995 92.2476 34.5577 92.1082 34.4676C91.9118 34.3389 91.6996 34.2455 91.4716 34.1876C91.2435 34.1297 91.0123 34.1007 90.7779 34.1007C90.3281 34.1007 89.948 34.194 89.6376 34.3807C89.3272 34.5674 89.0928 34.8377 88.9345 35.1917C88.7761 35.5457 88.6969 35.9802 88.6969 36.4952C88.6969 37.0037 88.7761 37.4382 88.9345 37.7986C89.0928 38.1591 89.3272 38.4326 89.6376 38.6193C89.948 38.806 90.3281 38.8993 90.7779 38.8993C91.0186 38.8993 91.2562 38.8703 91.4906 38.8124C91.725 38.748 91.9467 38.6515 92.1557 38.5228C92.2951 38.4391 92.4186 38.4037 92.5263 38.4166C92.6403 38.423 92.7353 38.4616 92.8114 38.5324C92.8874 38.6032 92.9381 38.6933 92.9634 38.8028C92.9887 38.9057 92.9824 39.0152 92.9444 39.131C92.9064 39.2405 92.8304 39.337 92.7163 39.4207C92.463 39.6074 92.1589 39.7522 91.8041 39.8552C91.4557 39.9517 91.101 40 90.7399 40Z" fill="white"/>
<path d="M96.2124 39.9807C96.016 39.9807 95.864 39.926 95.7563 39.8166C95.6549 39.7007 95.6043 39.543 95.6043 39.3434V34.1297H93.7513C93.5866 34.1297 93.4568 34.0846 93.3618 33.9945C93.2731 33.8979 93.2287 33.7692 93.2287 33.6083C93.2287 33.4409 93.2731 33.3154 93.3618 33.2317C93.4568 33.1416 93.5866 33.0966 93.7513 33.0966H98.6735C98.8382 33.0966 98.9649 33.1416 99.0536 33.2317C99.1486 33.3154 99.1961 33.4409 99.1961 33.6083C99.1961 33.7692 99.1486 33.8979 99.0536 33.9945C98.9649 34.0846 98.8382 34.1297 98.6735 34.1297H96.8205V39.3434C96.8205 39.543 96.7699 39.7007 96.6685 39.8166C96.5672 39.926 96.4151 39.9807 96.2124 39.9807Z" fill="white"/>
<path d="M100.404 39.9807C100.321 39.9807 100.249 39.9678 100.185 39.9421C100.122 39.9163 100.068 39.8777 100.024 39.8262C99.9793 39.7683 99.9445 39.7007 99.9192 39.6234C99.9001 39.5462 99.8906 39.4561 99.8906 39.3531V33.6083C99.8906 33.4216 99.9382 33.2768 100.033 33.1738C100.135 33.0708 100.277 33.0193 100.461 33.0193C100.644 33.0193 100.784 33.0708 100.879 33.1738C100.974 33.2768 101.021 33.4216 101.021 33.6083V38.1752H100.803L104.414 33.3766C104.509 33.2478 104.601 33.1577 104.689 33.1062C104.778 33.0483 104.895 33.0193 105.041 33.0193C105.142 33.0193 105.228 33.0418 105.297 33.0869C105.373 33.132 105.43 33.1995 105.468 33.2897C105.513 33.3733 105.535 33.4731 105.535 33.589V39.3821C105.535 39.5752 105.487 39.7232 105.392 39.8262C105.297 39.9292 105.158 39.9807 104.974 39.9807C104.791 39.9807 104.648 39.9292 104.547 39.8262C104.452 39.7232 104.404 39.5752 104.404 39.3821V34.8152H104.613L101.012 39.6138C100.911 39.7425 100.819 39.8359 100.736 39.8938C100.66 39.9517 100.549 39.9807 100.404 39.9807Z" fill="white"/>
<path d="M112.073 39.9807C111.877 39.9807 111.724 39.926 111.617 39.8166C111.515 39.7007 111.465 39.543 111.465 39.3434V34.1297H109.07V35.4814C109.07 36.0671 109.032 36.5885 108.956 37.0455C108.88 37.5025 108.769 37.908 108.624 38.2621C108.484 38.6161 108.307 38.9251 108.091 39.189C107.882 39.4529 107.642 39.6814 107.369 39.8745C107.23 39.9775 107.087 40.0129 106.942 39.9807C106.796 39.9549 106.669 39.8713 106.562 39.7297C106.46 39.5816 106.425 39.4368 106.457 39.2952C106.495 39.1536 106.587 39.0313 106.733 38.9283C106.935 38.7867 107.113 38.6129 107.265 38.4069C107.417 38.2009 107.544 37.9499 107.645 37.6538C107.746 37.3577 107.822 37.0069 107.873 36.6014C107.924 36.1894 107.949 35.7099 107.949 35.1628V33.7531C107.949 33.5407 108.003 33.3798 108.11 33.2703C108.225 33.1545 108.386 33.0966 108.595 33.0966H112.035C112.244 33.0966 112.402 33.1545 112.51 33.2703C112.624 33.3798 112.681 33.5407 112.681 33.7531V39.3434C112.681 39.543 112.627 39.7007 112.52 39.8166C112.418 39.926 112.269 39.9807 112.073 39.9807Z" fill="white"/>
<path d="M114.79 39.9034C114.581 39.9034 114.419 39.8487 114.305 39.7393C114.198 39.6234 114.144 39.4593 114.144 39.2469V33.6566C114.144 33.4506 114.195 33.2929 114.296 33.1834C114.404 33.074 114.556 33.0193 114.752 33.0193C114.948 33.0193 115.097 33.074 115.199 33.1834C115.306 33.2929 115.36 33.4506 115.36 33.6566V35.9352H117.175C117.65 35.9352 118.059 36.0124 118.401 36.1669C118.743 36.3149 119.003 36.537 119.18 36.8331C119.364 37.1228 119.456 37.4832 119.456 37.9145C119.456 38.5582 119.253 39.0506 118.848 39.3917C118.448 39.7329 117.891 39.9034 117.175 39.9034H114.79ZM115.36 38.9186H117.023C117.454 38.9186 117.771 38.8382 117.973 38.6772C118.176 38.5099 118.277 38.2556 118.277 37.9145C118.277 37.5733 118.176 37.3223 117.973 37.1614C117.771 37.0005 117.454 36.92 117.023 36.92H115.36V38.9186Z" fill="white"/>
<path d="M121.146 39.9807C120.949 39.9807 120.797 39.926 120.69 39.8166C120.588 39.7007 120.537 39.543 120.537 39.3434V33.6566C120.537 33.4506 120.588 33.2929 120.69 33.1834C120.797 33.074 120.949 33.0193 121.146 33.0193C121.342 33.0193 121.491 33.074 121.592 33.1834C121.7 33.2929 121.754 33.4506 121.754 33.6566V35.9352H125.203V33.6566C125.203 33.4506 125.254 33.2929 125.355 33.1834C125.463 33.074 125.615 33.0193 125.811 33.0193C126.008 33.0193 126.156 33.074 126.258 33.1834C126.365 33.2929 126.419 33.4506 126.419 33.6566V39.3434C126.419 39.543 126.365 39.7007 126.258 39.8166C126.156 39.926 126.008 39.9807 125.811 39.9807C125.615 39.9807 125.463 39.926 125.355 39.8166C125.254 39.7007 125.203 39.543 125.203 39.3434V36.9683H121.754V39.3434C121.754 39.543 121.703 39.7007 121.602 39.8166C121.5 39.926 121.348 39.9807 121.146 39.9807Z" fill="white"/>
<path d="M127.953 39.9807C127.801 39.9807 127.678 39.9453 127.583 39.8745C127.494 39.8037 127.44 39.7103 127.421 39.5945C127.402 39.4722 127.424 39.337 127.488 39.189L129.996 33.5407C130.079 33.354 130.177 33.2221 130.291 33.1448C130.411 33.0611 130.547 33.0193 130.699 33.0193C130.845 33.0193 130.975 33.0611 131.089 33.1448C131.209 33.2221 131.311 33.354 131.393 33.5407L133.911 39.189C133.981 39.337 134.006 39.4722 133.987 39.5945C133.968 39.7168 133.914 39.8133 133.826 39.8841C133.737 39.9485 133.62 39.9807 133.474 39.9807C133.297 39.9807 133.157 39.9389 133.056 39.8552C132.961 39.7651 132.875 39.6299 132.799 39.4497L132.182 37.9917L132.695 38.3297H128.685L129.198 37.9917L128.59 39.4497C128.508 39.6363 128.422 39.7715 128.333 39.8552C128.245 39.9389 128.118 39.9807 127.953 39.9807ZM130.68 34.4386L129.35 37.6538L129.103 37.3448H132.277L132.039 37.6538L130.699 34.4386H130.68Z" fill="white"/>
<path d="M138.146 39.9807C137.949 39.9807 137.797 39.926 137.69 39.8166C137.588 39.7007 137.537 39.543 137.537 39.3434V33.6469C137.537 33.4409 137.588 33.2864 137.69 33.1834C137.797 33.074 137.949 33.0193 138.146 33.0193C138.342 33.0193 138.491 33.074 138.592 33.1834C138.7 33.2864 138.754 33.4409 138.754 33.6469V35.9834H139.837L139.599 36.1476L141.348 33.3379C141.437 33.2028 141.538 33.1126 141.652 33.0676C141.772 33.0225 141.889 33.0129 142.004 33.0386C142.118 33.0644 142.216 33.1191 142.298 33.2028C142.38 33.2864 142.425 33.3894 142.431 33.5117C142.444 33.634 142.406 33.766 142.317 33.9076L140.721 36.389L140.246 36.0317C140.657 36.0961 141.006 36.2474 141.291 36.4855C141.576 36.7237 141.82 37.0552 142.023 37.48L142.802 39.1021C142.884 39.263 142.909 39.4078 142.878 39.5366C142.852 39.6653 142.789 39.7683 142.688 39.8455C142.593 39.9163 142.482 39.9582 142.355 39.971C142.235 39.9839 142.114 39.9614 141.994 39.9034C141.88 39.8391 141.788 39.7329 141.718 39.5848L140.968 37.9434C140.816 37.6087 140.632 37.3706 140.417 37.229C140.208 37.0874 139.945 37.0166 139.628 37.0166H138.754V39.3434C138.754 39.543 138.703 39.7007 138.602 39.8166C138.5 39.926 138.348 39.9807 138.146 39.9807Z" fill="white"/>
<path d="M146.832 40C146.186 40 145.619 39.8552 145.131 39.5655C144.649 39.2759 144.276 38.8703 144.01 38.349C143.743 37.8211 143.61 37.2032 143.61 36.4952C143.61 35.9609 143.686 35.4814 143.838 35.0566C143.991 34.6253 144.206 34.2584 144.485 33.9559C144.77 33.6469 145.109 33.412 145.501 33.251C145.9 33.0837 146.344 33 146.832 33C147.484 33 148.051 33.1448 148.533 33.4345C149.014 33.7177 149.388 34.12 149.654 34.6414C149.92 35.1628 150.053 35.7775 150.053 36.4855C150.053 37.0198 149.977 37.5025 149.825 37.9338C149.673 38.3651 149.454 38.7352 149.169 39.0441C148.89 39.3531 148.552 39.5913 148.152 39.7586C147.76 39.9195 147.319 40 146.832 40ZM146.832 38.9379C147.243 38.9379 147.592 38.8414 147.877 38.6483C148.168 38.4552 148.39 38.1752 148.542 37.8083C148.7 37.4414 148.78 37.0037 148.78 36.4952C148.78 35.7228 148.609 35.1241 148.267 34.6993C147.931 34.2745 147.452 34.0621 146.832 34.0621C146.426 34.0621 146.078 34.1586 145.786 34.3517C145.495 34.5384 145.27 34.8152 145.112 35.1821C144.96 35.5425 144.884 35.9802 144.884 36.4952C144.884 37.2611 145.055 37.8598 145.397 38.291C145.739 38.7223 146.217 38.9379 146.832 38.9379Z" fill="white"/>
<path d="M151.86 39.9807C151.682 39.9807 151.546 39.9292 151.451 39.8262C151.356 39.7232 151.309 39.5816 151.309 39.4014V33.5986C151.309 33.412 151.359 33.2703 151.461 33.1738C151.562 33.0708 151.701 33.0193 151.879 33.0193C152.037 33.0193 152.161 33.0515 152.249 33.1159C152.344 33.1738 152.43 33.2768 152.506 33.4248L154.853 37.8372H154.549L156.896 33.4248C156.972 33.2768 157.054 33.1738 157.143 33.1159C157.232 33.0515 157.355 33.0193 157.514 33.0193C157.691 33.0193 157.827 33.0708 157.922 33.1738C158.017 33.2703 158.065 33.412 158.065 33.5986V39.4014C158.065 39.5816 158.017 39.7232 157.922 39.8262C157.834 39.9292 157.697 39.9807 157.514 39.9807C157.336 39.9807 157.2 39.9292 157.105 39.8262C157.01 39.7232 156.962 39.5816 156.962 39.4014V34.931H157.172L155.176 38.629C155.113 38.7384 155.046 38.8189 154.977 38.8703C154.907 38.9218 154.812 38.9476 154.691 38.9476C154.571 38.9476 154.473 38.9218 154.397 38.8703C154.321 38.8124 154.254 38.732 154.197 38.629L152.183 34.9214H152.411V39.4014C152.411 39.5816 152.363 39.7232 152.268 39.8262C152.18 39.9292 152.044 39.9807 151.86 39.9807Z" fill="white"/>
<path d="M160.147 39.9807C159.951 39.9807 159.799 39.926 159.691 39.8166C159.59 39.7007 159.539 39.543 159.539 39.3434V33.7531C159.539 33.5407 159.593 33.3798 159.701 33.2703C159.815 33.1545 159.976 33.0966 160.185 33.0966H164.718C164.927 33.0966 165.085 33.1545 165.193 33.2703C165.307 33.3798 165.364 33.5407 165.364 33.7531V39.3434C165.364 39.543 165.31 39.7007 165.202 39.8166C165.101 39.926 164.952 39.9807 164.756 39.9807C164.559 39.9807 164.407 39.926 164.3 39.8166C164.198 39.7007 164.148 39.543 164.148 39.3434V34.1297H160.755V39.3434C160.755 39.543 160.705 39.7007 160.603 39.8166C160.502 39.926 160.35 39.9807 160.147 39.9807Z" fill="white"/>
<path d="M166.881 39.9807C166.729 39.9807 166.605 39.9453 166.51 39.8745C166.421 39.8037 166.368 39.7103 166.349 39.5945C166.33 39.4722 166.352 39.337 166.415 39.189L168.924 33.5407C169.006 33.354 169.104 33.2221 169.218 33.1448C169.339 33.0611 169.475 33.0193 169.627 33.0193C169.773 33.0193 169.902 33.0611 170.016 33.1448C170.137 33.2221 170.238 33.354 170.321 33.5407L172.839 39.189C172.908 39.337 172.934 39.4722 172.915 39.5945C172.896 39.7168 172.842 39.8133 172.753 39.8841C172.664 39.9485 172.547 39.9807 172.402 39.9807C172.224 39.9807 172.085 39.9389 171.983 39.8552C171.888 39.7651 171.803 39.6299 171.727 39.4497L171.109 37.9917L171.622 38.3297H167.612L168.126 37.9917L167.517 39.4497C167.435 39.6363 167.35 39.7715 167.261 39.8552C167.172 39.9389 167.045 39.9807 166.881 39.9807ZM169.608 34.4386L168.278 37.6538L168.031 37.3448H171.204L170.967 37.6538L169.627 34.4386H169.608Z" fill="white"/>
<path d="M174.493 39.9807C174.297 39.9807 174.145 39.926 174.037 39.8166C173.936 39.7007 173.885 39.543 173.885 39.3434V33.6566C173.885 33.4506 173.936 33.2929 174.037 33.1834C174.145 33.074 174.297 33.0193 174.493 33.0193C174.69 33.0193 174.839 33.074 174.94 33.1834C175.048 33.2929 175.101 33.4506 175.101 33.6566V35.9352H178.551V33.6566C178.551 33.4506 178.601 33.2929 178.703 33.1834C178.811 33.074 178.963 33.0193 179.159 33.0193C179.355 33.0193 179.504 33.074 179.606 33.1834C179.713 33.2929 179.767 33.4506 179.767 33.6566V39.3434C179.767 39.543 179.713 39.7007 179.606 39.8166C179.504 39.926 179.355 39.9807 179.159 39.9807C178.963 39.9807 178.811 39.926 178.703 39.8166C178.601 39.7007 178.551 39.543 178.551 39.3434V36.9683H175.101V39.3434C175.101 39.543 175.051 39.7007 174.949 39.8166C174.848 39.926 174.696 39.9807 174.493 39.9807Z" fill="white"/>
<path d="M181.843 39.9807C181.646 39.9807 181.494 39.926 181.387 39.8166C181.285 39.7007 181.235 39.543 181.235 39.3434V33.6566C181.235 33.4506 181.285 33.2929 181.387 33.1834C181.494 33.074 181.646 33.0193 181.843 33.0193C182.039 33.0193 182.188 33.074 182.289 33.1834C182.397 33.2929 182.451 33.4506 182.451 33.6566V39.3434C182.451 39.543 182.4 39.7007 182.299 39.8166C182.197 39.926 182.045 39.9807 181.843 39.9807Z" fill="white"/>
<path d="M188.392 39.9807C188.195 39.9807 188.043 39.926 187.936 39.8166C187.834 39.7007 187.784 39.543 187.784 39.3434V37.1807H186.967C186.814 37.1807 186.678 37.1968 186.558 37.229C186.438 37.2611 186.33 37.3159 186.235 37.3931C186.14 37.4703 186.054 37.583 185.978 37.731L184.971 39.6041C184.889 39.7586 184.787 39.8616 184.667 39.9131C184.547 39.971 184.426 39.9871 184.306 39.9614C184.186 39.9421 184.081 39.8906 183.992 39.8069C183.904 39.7232 183.847 39.617 183.821 39.4883C183.802 39.3595 183.834 39.2179 183.916 39.0634L184.591 37.8083C184.73 37.5444 184.898 37.3448 185.095 37.2097C185.291 37.0745 185.519 37.0069 185.779 37.0069H186.102L186.083 37.1517C185.354 37.1517 184.787 36.9747 184.382 36.6207C183.983 36.2602 183.783 35.7646 183.783 35.1338C183.783 34.7025 183.872 34.3356 184.049 34.0331C184.227 33.7306 184.486 33.4989 184.829 33.3379C185.177 33.177 185.595 33.0966 186.083 33.0966H188.354C188.563 33.0966 188.721 33.1545 188.829 33.2703C188.943 33.3798 189 33.5407 189 33.7531V39.3434C189 39.543 188.946 39.7007 188.838 39.8166C188.737 39.926 188.588 39.9807 188.392 39.9807ZM186.292 36.2634H187.784V34.0717H186.292C185.855 34.0717 185.522 34.1651 185.294 34.3517C185.072 34.532 184.962 34.8023 184.962 35.1628C184.962 35.5297 185.072 35.8064 185.294 35.9931C185.522 36.1733 185.855 36.2634 186.292 36.2634Z" fill="white"/>
</g>
<defs>
<clipPath id="clip0_822_1367">
<rect width="208" height="40" fill="white"/>
</clipPath>
</defs>
</svg>
