<svg width="140" height="40" viewBox="0 0 140 40" fill="none" xmlns="http://www.w3.org/2000/svg">
<path d="M5.06538 4.25204H4.21179V4.1508C5.07661 3.86958 5.68311 3.12716 5.68311 2.22726C5.68311 0.989894 4.85199 0 2.98757 0H0V7.87415H1.03329V4.80323H4.70598C4.71721 4.80323 4.72844 4.81448 4.72844 4.82573V7.87415H5.76173V4.96072C5.76173 4.49952 5.51464 4.25204 5.06538 4.25204ZM1.03329 3.93708V0.877406H2.88648C4.29041 0.877406 4.68351 1.56358 4.68351 2.40724C4.68351 3.26215 4.08825 3.93708 2.85279 3.93708H1.03329Z" fill="black"/>
<path d="M72.0043 6.97425H70.2297V0.899903H72.0043V0H67.4443V0.899903H69.2189V6.97425H67.4443V7.87415H72.0043V6.97425Z" fill="black"/>
<path d="M27.0795 6.97425H25.3049V0.899903H27.0795V0H22.5195V0.899903H24.2941V6.97425H22.5195V7.87415H27.0795V6.97425Z" fill="black"/>
<path d="M48.1718 7.87415L50.6876 0H49.6206L47.3631 7.21048H47.1834L44.9146 0H43.8477L46.3523 7.87415H48.1718Z" fill="black"/>
<path d="M115.526 4.25204H114.673V4.1508C115.538 3.86958 116.144 3.12716 116.144 2.22726C116.144 0.989894 115.313 0 113.449 0H110.461V7.87415H111.494V4.80323H115.167C115.178 4.80323 115.189 4.81448 115.189 4.82573V7.87415H116.223V4.96072C116.223 4.49952 115.976 4.25204 115.526 4.25204ZM111.494 3.93708V0.877406H113.347C114.751 0.877406 115.144 1.56358 115.144 2.40724C115.144 3.26215 114.549 3.93708 113.314 3.93708H111.494Z" fill="black"/>
<path d="M134.912 5.12945H138.023L138.911 7.87415H140L137.394 0H135.586L132.98 7.87415H134.014L134.912 5.12945ZM136.361 0.663679H136.563L137.743 4.28579H135.182L136.361 0.663679Z" fill="black"/>
<path d="M88.7734 7.87415H93.704V6.97425H89.8067V4.38703H93.1649V3.48713H89.8067V0.888655H93.704V0H88.7734V7.87415Z" fill="black"/>
<path d="M24.742 31.3394C23.6975 31.3394 22.7428 31.8343 22.2599 32.8692H22.1363V31.5081H21.2266V35.1414C21.2266 35.5239 21.541 35.8389 21.9229 35.8389H24.742V34.984H22.2486V34.6915C22.2823 33.2404 23.237 32.2393 24.6859 32.2393C26.3032 32.2393 27.314 33.5216 27.314 35.4452C27.314 37.3687 26.2358 38.6511 24.6297 38.6511C23.6863 38.6511 22.8551 38.1111 22.4059 37.2L21.5073 37.6724C22.0802 38.8423 23.237 39.551 24.6297 39.551C26.8423 39.551 28.381 37.8749 28.381 35.4452C28.381 33.0154 26.9434 31.3394 24.742 31.3394Z" fill="black"/>
<path d="M0.415039 32.4077H4.31235V34.9949H0.954149V35.8948H4.31235V38.4933H0.415039V39.382H5.34564V31.5078H0.415039V32.4077Z" fill="black"/>
<path d="M111.067 32.4077H112.842V38.4821H111.067V39.382H115.627V38.4821H113.853V32.4077H115.627V31.5078H111.067V32.4077Z" fill="black"/>
<path d="M48.8447 34.2525H45.7336L44.8463 31.5078H43.7568L46.3625 39.382H48.1708L50.7765 31.5078H49.7432L48.8447 34.2525ZM47.3958 38.7183H47.1937L46.0144 35.0962H48.5751L47.3958 38.7183Z" fill="black"/>
<path d="M135.585 31.5078L133.069 39.382H134.136L136.394 32.1715H136.574L138.842 39.382H139.909L137.405 31.5078H135.585Z" fill="black"/>
<path d="M71.4765 31.5078H67.2646V32.4077H71.1395C71.162 32.4077 71.1732 32.419 71.1732 32.4415V39.382H72.184V32.2165C72.184 31.834 71.8696 31.5078 71.4765 31.5078Z" fill="black"/>
<path d="M92.9842 31.5078H88.7725V32.4077H92.6473C92.6698 32.4077 92.681 32.419 92.681 32.4415V39.382H93.6918V32.2165C93.6918 31.834 93.3773 31.5078 92.9842 31.5078Z" fill="black"/>
</svg>
