<svg width="149" height="40" viewBox="0 0 149 40" fill="none" xmlns="http://www.w3.org/2000/svg">
<path d="M25.2002 0H32.3002V16.9H25.2002V0Z" fill="black"/>
<path d="M62.4004 0H69.6004V16.9H62.4004V0Z" fill="black"/>
<path d="M94.4004 4.5V0H75.4004V16.9H94.4004V12.6H82.4004V10.6H94.0004V6.5H82.4004V4.5H94.4004Z" fill="black"/>
<path d="M14.6 16.9H22.5L18.5 10.5C21.7 9.79998 22.2 7.39998 21.9 4.19998C21.4 0.299975 17.5 0.0999756 15.7 0.0999756H0V17H7.2V12.2H12L14.6 16.9ZM7.2 5.19998H13C13.6 5.19998 14.2 5.59998 14.2 6.59998C14.2 7.59998 13.7 7.99998 13 7.99998H7V5.19998H7.2Z" fill="black"/>
<path d="M112.9 16.9H120.7L116.7 10.5C119.9 9.79998 120.4 7.39998 120.1 4.19998C119.7 0.299975 115.7 0.0999756 113.9 0.0999756H98.2998V17H105.4V12.2H110.3L112.9 16.9ZM105.4 5.19998H111.3C111.9 5.19998 112.5 5.59998 112.5 6.59998C112.5 7.59998 112 7.99998 111.3 7.99998H105.3V5.19998H105.4Z" fill="black"/>
<path d="M51 0L47.4 10.2L43.8 0H35.5L43.2 16.9H51.7L59.3 0H51Z" fill="black"/>
<path d="M140.5 0H131L123 16.9H130.5L131.5 14.8H139.2L140 16.9H148.5L140.5 0ZM133.4 10.3L135.7 5.3L137.4 10.3H133.4Z" fill="black"/>
<path d="M27.4 22V28H19.7V22H12.5V38.7H19.7V33H27.4V38.8H34.6V22.1L27.4 22Z" fill="black"/>
<path d="M136 26.5V22H116.8V38.9H135.8V34.6H123.8V32.6H135.4V28.4H123.9V26.4L136 26.5Z" fill="black"/>
<path d="M103.8 27.7C99.1 27.7 99 27.1 99 26.6C99 26 99.4 25.4 102 25.4C104.8 25.4 104.8 26.8 104.8 26.8V27H112.7C112.7 27 113.2 23.4 108.2 21.9C106.5 21.4 104.2 21.2 101 21.2C96.5 21.4 93.7 22.2 92.3 23.4C90.6 25 90.8 27.2 91 28.2C91.2 28.6 91.3 29.7 92.6 30.6C95.2 32.2 102.4 32.3 104.5 32.8C105.5 33 105.7 34.1 104.3 34.7C102.724 35.0897 101.076 35.0897 99.5 34.7C98.5 34.3 98.6 33.1 98.6 33.1H90.5C91 38.1 93.7 39.4 102.6 39.4C111.6 39.4 113.4 36.8 113.4 33.7C113.7 30.7 111.7 29.5 111.7 29.5C111.7 29.5 109.2 27.7 103.7 27.7H103.8Z" fill="black"/>
<path d="M62.1999 27.7C61.7498 25.9524 60.6846 24.4258 59.1999 23.4C55.8999 21.4 51.0999 21.4 50.1999 21.4C49.1999 21.4 44.4999 21.4 41.1999 23.4C39.7019 24.4124 38.6329 25.9446 38.1999 27.7C37.6999 29.2 37.7999 31.7 38.1999 33.1C38.6847 34.7779 39.7474 36.2302 41.1999 37.2C43.9565 38.7061 47.0593 39.4646 50.1999 39.4C51.1999 39.4 55.8999 39.4 59.1999 37.2C60.678 36.2573 61.7486 34.7942 62.1999 33.1C62.5999 31.7 62.6999 29.2 62.1999 27.7ZM50.1999 34.3C48.5999 34.3 45.3999 33.9 45.3999 30.3C45.3999 26.8 48.5999 26.4 50.0999 26.4H50.1999C51.6999 26.4 54.8999 26.8 54.8999 30.4C54.8999 33.9 51.7999 34.3 50.1999 34.3Z" fill="black"/>
<path d="M87.6998 22H80.4998V31.8C80.4998 32.9 80.2998 34.4 76.6998 34.4C72.9998 34.4 72.8998 32.9 72.8998 31.8V22H65.7998V29.6C65.7998 32.4 65.8998 35.6 67.9998 37.2C70.4052 38.6547 73.1928 39.3516 75.9998 39.2H77.6998C80.9998 39.2 83.6998 38.5 85.3998 37.2C87.4998 35.6 87.6998 32.4 87.5998 29.6V22H87.6998Z" fill="black"/>
</svg>
