<svg width="233" height="69" viewBox="0 0 233 69" fill="none" xmlns="http://www.w3.org/2000/svg">
<path d="M48.3641 40.0539C47.666 40.3662 47.055 40.5781 46.5335 40.6933C46.0145 40.8086 45.4244 40.904 44.7643 40.9808C44.103 41.0564 43.4502 41.0948 42.8085 41.0948C40.0062 41.0948 37.9168 40.2943 36.5365 38.6969C35.1574 37.0995 34.4678 35.0671 34.4678 32.5936C34.4678 30.1064 35.1562 28.0691 36.5303 26.4767C37.9082 24.888 40.0676 24.0936 43.0147 24.0936C44.7545 24.0936 46.4869 24.3018 48.2144 24.7169V27.3528C47.3826 27.0616 46.7041 26.8485 46.1777 26.7134C45.6489 26.5771 45.1495 26.4767 44.6772 26.4122C44.2036 26.3466 43.7324 26.3143 43.2637 26.3143C41.4209 26.3143 40.086 26.9129 39.2553 28.1088C38.4259 29.3046 38.01 30.7843 38.01 32.5502C38.01 34.4004 38.4811 35.9024 39.4234 37.0475C40.3657 38.1913 41.7693 38.7638 43.6318 38.7638C45.1851 38.7638 46.7617 38.3672 48.3641 37.5717V40.0539Z" fill="#101010"/>
<path d="M56.813 40.688V24.4972H60.1503V31.0727H66.7782V24.4972H70.1142V40.688H66.7782V33.3046H60.1503V40.688H56.813Z" fill="#101010"/>
<path d="M82.8393 34.2122H87.8145L85.3263 27.7582L82.8393 34.2122ZM77.9131 40.6897L84.1558 24.4977H87.4992L93.7381 40.6897H90.3089L88.6451 36.3672H82.0074L80.3412 40.6897H77.9131Z" fill="#101010"/>
<path d="M104.688 31.8493H105.456C106.834 31.8493 107.784 31.5469 108.31 30.9422C108.835 30.3362 109.098 29.6509 109.098 28.8838C109.098 28.222 108.883 27.6954 108.456 27.305C108.029 26.9146 107.162 26.7188 105.85 26.7188H104.688V31.8493ZM101.548 40.6876V24.4969H107.548C108.775 24.4969 109.711 24.653 110.353 24.9616C110.997 25.2726 111.502 25.7436 111.875 26.3743C112.247 27.0051 112.432 27.7177 112.432 28.5133C112.432 29.4613 112.163 30.356 111.621 31.1987C111.079 32.0402 110.314 32.6833 109.325 33.1295L114.572 40.6876H110.51L106.522 34.0701H104.688V40.6876H101.548Z" fill="#101010"/>
<path d="M122.398 40.688V24.4972H125.734V38.3917H132.872V40.688H122.398Z" fill="#101010"/>
<path d="M144.831 40.688V26.7291H139.089V24.4972H153.906V26.7291H148.167V40.688H144.831Z" fill="#101010"/>
<path d="M168.834 38.8727C170.379 38.8727 171.528 38.2358 172.284 36.9618C173.037 35.6904 173.415 34.2305 173.415 32.5885C173.415 30.9379 173.036 29.4793 172.279 28.214C171.518 26.9462 170.37 26.313 168.834 26.313C167.288 26.313 166.136 26.9462 165.378 28.214C164.618 29.4793 164.24 30.9379 164.24 32.5885C164.24 34.2305 164.617 35.6904 165.371 36.9618C166.127 38.2358 167.279 38.8727 168.834 38.8727ZM168.834 41.0947C167.165 41.0947 165.714 40.7465 164.478 40.0488C163.243 39.3548 162.305 38.3485 161.662 37.0399C161.019 35.7313 160.698 34.2491 160.698 32.5922C160.698 30.9453 161.019 29.4644 161.662 28.1533C162.305 26.8384 163.246 25.8346 164.489 25.1382C165.732 24.4417 167.18 24.0923 168.834 24.0923C170.479 24.0923 171.924 24.4417 173.166 25.1382C174.408 25.8346 175.35 26.8384 175.993 28.1533C176.635 29.4644 176.956 30.9453 176.956 32.5922C176.956 34.2491 176.635 35.7313 175.993 37.0399C175.35 38.3485 174.413 39.3548 173.182 40.0488C171.95 40.7465 170.501 41.0947 168.834 41.0947Z" fill="#101010"/>
<path d="M185.503 40.688V24.4972H188.443L195.858 35.5575V24.4972H198.533V40.688H195.54L188.179 29.629V40.688H185.503Z" fill="#101010"/>
<path d="M83.8937 67.7614V58.166H89.2149V59.1846H85.2409V62.2617H88.572V63.2667H85.2409V66.744H89.491V67.7614H83.8937Z" fill="#101010"/>
<path d="M94.3838 67.5799V66.2304C95.1506 66.586 95.7101 66.7992 96.0622 66.8723C96.4156 66.9466 96.7419 66.9826 97.0425 66.9826C97.5897 66.9826 98.0204 66.8339 98.3394 66.5315C98.6547 66.2328 98.813 65.8735 98.813 65.4534C98.813 65.1386 98.7296 64.8474 98.5651 64.5772C98.3946 64.3145 97.9762 63.991 97.31 63.6118L96.6536 63.2289C95.7763 62.7282 95.1886 62.2697 94.8868 61.8546C94.5862 61.4407 94.4353 60.9809 94.4353 60.4741C94.4353 60.0205 94.5543 59.5954 94.7923 59.1964C95.0316 58.7986 95.353 58.4875 95.7542 58.262C96.1554 58.0402 96.6634 57.9262 97.2732 57.9262C98.0093 57.9262 98.7848 58.0501 99.6007 58.2967V59.5409C98.8915 59.2596 98.4032 59.0898 98.1382 59.0328C97.8744 58.9733 97.6094 58.9436 97.3492 58.9436C96.7959 58.9436 96.3873 59.0898 96.1223 59.3786C95.8573 59.6673 95.7248 59.9635 95.7248 60.2659C95.7248 60.4741 95.7886 60.6847 95.9137 60.8979C96.0389 61.1123 96.207 61.2969 96.4192 61.4493C96.6303 61.6043 96.9223 61.7852 97.2916 61.9971L97.975 62.3862C98.8596 62.8918 99.451 63.3553 99.7479 63.7742C100.044 64.198 100.192 64.6838 100.192 65.2328C100.192 65.9813 99.9111 66.6294 99.3443 67.1784C98.7799 67.7249 97.9468 68 96.8474 68C96.5076 68 96.1788 67.9777 95.8597 67.9318C95.542 67.8872 95.0487 67.7695 94.3838 67.5799Z" fill="#101010"/>
<path d="M108.239 67.7615V59.1846H104.868V58.166H112.956V59.1846H109.586V67.7615H108.239Z" fill="#101010"/>
<path d="M119.818 64.0848H123.052L121.44 59.9532L119.818 64.0848ZM117.125 67.7617L120.898 58.1662H122.226L125.943 67.7617H124.486L123.45 65.1023H119.418L118.375 67.7617H117.125Z" fill="#101010"/>
<path d="M133.508 67.7615V59.1846H130.138V58.166H138.225V59.1846H134.856V67.7615H133.508Z" fill="#101010"/>
<path d="M143.51 67.7614V58.166H148.831V59.1846H144.857V62.2617H148.189V63.2667H144.857V66.744H149.108V67.7614H143.51Z" fill="#101010"/>
<path fill-rule="evenodd" clip-rule="evenodd" d="M1 1H232V64.8423H161.343V60.6945H227.893V5.14776H5.10655V60.6945H69.9409V64.8423H1V1Z" fill="#101010"/>
<path d="M48.3641 40.0539C47.666 40.3662 47.055 40.5781 46.5335 40.6933C46.0145 40.8086 45.4244 40.904 44.7643 40.9808C44.103 41.0564 43.4502 41.0948 42.8085 41.0948C40.0062 41.0948 37.9168 40.2943 36.5365 38.6969C35.1574 37.0995 34.4678 35.0671 34.4678 32.5936C34.4678 30.1064 35.1562 28.0691 36.5303 26.4767C37.9082 24.888 40.0676 24.0936 43.0147 24.0936C44.7545 24.0936 46.4869 24.3018 48.2144 24.7169V27.3528C47.3826 27.0616 46.7041 26.8485 46.1777 26.7134C45.6489 26.5771 45.1495 26.4767 44.6772 26.4122C44.2036 26.3466 43.7324 26.3143 43.2637 26.3143C41.4209 26.3143 40.086 26.9129 39.2553 28.1088C38.4259 29.3046 38.01 30.7843 38.01 32.5502C38.01 34.4004 38.4811 35.9024 39.4234 37.0475C40.3657 38.1913 41.7693 38.7638 43.6318 38.7638C45.1851 38.7638 46.7617 38.3672 48.3641 37.5717V40.0539Z" stroke="black" stroke-miterlimit="10"/>
<path d="M56.813 40.688V24.4972H60.1503V31.0727H66.7782V24.4972H70.1142V40.688H66.7782V33.3046H60.1503V40.688H56.813Z" stroke="black" stroke-miterlimit="10"/>
<path d="M82.8393 34.2122H87.8145L85.3263 27.7582L82.8393 34.2122ZM77.9131 40.6897L84.1558 24.4977H87.4992L93.7381 40.6897H90.3089L88.6451 36.3672H82.0074L80.3412 40.6897H77.9131Z" stroke="black" stroke-miterlimit="10"/>
<path d="M104.688 31.8493H105.456C106.834 31.8493 107.784 31.5469 108.31 30.9422C108.835 30.3362 109.098 29.6509 109.098 28.8838C109.098 28.222 108.883 27.6954 108.456 27.305C108.029 26.9146 107.162 26.7188 105.85 26.7188H104.688V31.8493ZM101.548 40.6876V24.4969H107.548C108.775 24.4969 109.711 24.653 110.353 24.9616C110.997 25.2726 111.502 25.7436 111.875 26.3743C112.247 27.0051 112.432 27.7177 112.432 28.5133C112.432 29.4613 112.163 30.356 111.621 31.1987C111.079 32.0402 110.314 32.6833 109.325 33.1295L114.572 40.6876H110.51L106.522 34.0701H104.688V40.6876H101.548Z" stroke="black" stroke-miterlimit="10"/>
<path d="M122.398 40.688V24.4972H125.734V38.3917H132.872V40.688H122.398Z" stroke="black" stroke-miterlimit="10"/>
<path d="M144.831 40.688V26.7291H139.089V24.4972H153.906V26.7291H148.167V40.688H144.831Z" stroke="black" stroke-miterlimit="10"/>
<path d="M168.834 38.8727C170.379 38.8727 171.528 38.2358 172.284 36.9618C173.037 35.6904 173.415 34.2305 173.415 32.5885C173.415 30.9379 173.036 29.4793 172.279 28.214C171.518 26.9462 170.37 26.313 168.834 26.313C167.288 26.313 166.136 26.9462 165.378 28.214C164.618 29.4793 164.24 30.9379 164.24 32.5885C164.24 34.2305 164.617 35.6904 165.371 36.9618C166.127 38.2358 167.279 38.8727 168.834 38.8727ZM168.834 41.0947C167.165 41.0947 165.714 40.7465 164.478 40.0488C163.243 39.3548 162.305 38.3485 161.662 37.0399C161.019 35.7313 160.698 34.2491 160.698 32.5922C160.698 30.9453 161.019 29.4644 161.662 28.1533C162.305 26.8384 163.246 25.8346 164.489 25.1382C165.732 24.4417 167.18 24.0923 168.834 24.0923C170.479 24.0923 171.924 24.4417 173.166 25.1382C174.408 25.8346 175.35 26.8384 175.993 28.1533C176.635 29.4644 176.956 30.9453 176.956 32.5922C176.956 34.2491 176.635 35.7313 175.993 37.0399C175.35 38.3485 174.413 39.3548 173.182 40.0488C171.95 40.7465 170.501 41.0947 168.834 41.0947Z" stroke="black" stroke-miterlimit="10"/>
<path d="M185.503 40.688V24.4972H188.443L195.858 35.5575V24.4972H198.533V40.688H195.54L188.179 29.629V40.688H185.503Z" stroke="black" stroke-miterlimit="10"/>
<path d="M83.8937 67.7614V58.166H89.2149V59.1846H85.2409V62.2617H88.572V63.2667H85.2409V66.744H89.491V67.7614H83.8937Z" stroke="black" stroke-miterlimit="10"/>
<path d="M94.3838 67.5799V66.2304C95.1506 66.586 95.7101 66.7992 96.0622 66.8723C96.4156 66.9466 96.7419 66.9826 97.0425 66.9826C97.5897 66.9826 98.0204 66.8339 98.3394 66.5315C98.6547 66.2328 98.813 65.8735 98.813 65.4534C98.813 65.1386 98.7296 64.8474 98.5651 64.5772C98.3946 64.3145 97.9762 63.991 97.31 63.6118L96.6536 63.2289C95.7763 62.7282 95.1886 62.2697 94.8868 61.8546C94.5862 61.4407 94.4353 60.9809 94.4353 60.4741C94.4353 60.0205 94.5543 59.5954 94.7923 59.1964C95.0316 58.7986 95.353 58.4875 95.7542 58.262C96.1554 58.0402 96.6634 57.9262 97.2732 57.9262C98.0093 57.9262 98.7848 58.0501 99.6007 58.2967V59.5409C98.8915 59.2596 98.4032 59.0898 98.1382 59.0328C97.8744 58.9733 97.6094 58.9436 97.3492 58.9436C96.7959 58.9436 96.3873 59.0898 96.1223 59.3786C95.8573 59.6673 95.7248 59.9635 95.7248 60.2659C95.7248 60.4741 95.7886 60.6847 95.9137 60.8979C96.0389 61.1123 96.207 61.2969 96.4192 61.4493C96.6303 61.6043 96.9223 61.7852 97.2916 61.9971L97.975 62.3862C98.8596 62.8918 99.451 63.3553 99.7479 63.7742C100.044 64.198 100.192 64.6838 100.192 65.2328C100.192 65.9813 99.9111 66.6294 99.3443 67.1784C98.7799 67.7249 97.9468 68 96.8474 68C96.5076 68 96.1788 67.9777 95.8597 67.9318C95.542 67.8872 95.0487 67.7695 94.3838 67.5799Z" stroke="black" stroke-miterlimit="10"/>
<path d="M108.239 67.7615V59.1846H104.868V58.166H112.956V59.1846H109.586V67.7615H108.239Z" stroke="black" stroke-miterlimit="10"/>
<path d="M119.818 64.0848H123.052L121.44 59.9532L119.818 64.0848ZM117.125 67.7617L120.898 58.1662H122.226L125.943 67.7617H124.486L123.45 65.1023H119.418L118.375 67.7617H117.125Z" stroke="black" stroke-miterlimit="10"/>
<path d="M133.508 67.7615V59.1846H130.138V58.166H138.225V59.1846H134.856V67.7615H133.508Z" stroke="black" stroke-miterlimit="10"/>
<path d="M143.51 67.7614V58.166H148.831V59.1846H144.857V62.2617H148.189V63.2667H144.857V66.744H149.108V67.7614H143.51Z" stroke="black" stroke-miterlimit="10"/>
<path fill-rule="evenodd" clip-rule="evenodd" d="M1 1H232V64.8423H161.343V60.6945H227.893V5.14776H5.10655V60.6945H69.9409V64.8423H1V1Z" stroke="black" stroke-miterlimit="10"/>
</svg>
