<svg width="171" height="99" viewBox="0 0 171 99" fill="none" xmlns="http://www.w3.org/2000/svg">
<path d="M66.3512 96.8757C71.291 96.8757 73.376 93.2117 73.376 89.807C73.376 86.3909 71.291 82.7138 66.3512 82.7138H62.8911V96.8757H66.3512ZM60.9984 98.6263V80.9876H66.4753C69.1971 80.9876 71.3403 81.9249 72.9837 83.6976C74.4728 85.3046 75.2931 87.4742 75.2931 89.807C75.2931 92.1314 74.4728 94.2974 72.9837 95.9074C71.3373 97.6861 69.1947 98.6263 66.4753 98.6263H60.9984Z" fill="#101010"/>
<path d="M90.7088 98.6265L82.1141 84.2293V98.6265H80.2962V80.9878H82.2678L90.8625 95.3606V80.9878H92.681V98.6265H90.7088Z" fill="#101010"/>
<path d="M99.1719 98.6265L102.845 91.5834L96.3622 80.9878H98.5641L103.846 89.6939L108.465 80.9878H110.533L101.24 98.6265H99.1719Z" fill="#101010"/>
<path d="M118.097 98.6265V82.7885H112.814V80.9878H125.298V82.7885H119.99V98.6265H118.097Z" fill="#101010"/>
<path d="M134.482 99C132.569 99 130.974 98.4566 129.87 97.4287C128.763 96.3979 128.178 94.9076 128.178 93.1194V93.0157H130.071V93.1194C130.071 95.6977 131.761 97.2988 134.482 97.2988C136.924 97.2988 138.323 96.1297 138.323 94.0907C138.283 91.7853 136.424 91.0434 134.523 90.4809C134.266 90.4053 134.001 90.3302 133.743 90.2581C131.198 89.5436 128.566 88.8042 128.699 85.3208C128.699 83.9485 129.229 82.7693 130.23 81.9154C131.228 81.0639 132.604 80.6146 134.209 80.6146C135.897 80.6146 137.315 81.1086 138.311 82.0429C139.314 82.985 139.844 84.3352 139.844 85.947V86.0507H137.952V85.947C137.952 83.6231 136.569 82.2902 134.16 82.2902C131.993 82.2902 130.592 83.4426 130.592 85.2248C130.662 87.4909 132.478 88.0051 134.582 88.6004C134.703 88.635 134.824 88.6689 134.946 88.7041C137.224 89.3577 140.344 90.2521 140.191 94.0448C140.191 95.5285 139.657 96.7792 138.646 97.6581C137.636 98.5358 136.196 99 134.482 99Z" fill="#101010"/>
<path d="M44.2312 98.6265V90.5669H35.4829V98.6265H33.5902V80.9878H35.4829V88.8162H44.2312V80.9878H46.1239V98.6265H44.2312Z" fill="#101010"/>
<path d="M145.362 98.6265L149.035 91.5834L142.552 80.9878H144.754L150.036 89.6939L154.655 80.9878H156.724L147.43 98.6265H145.362Z" fill="#101010"/>
<path d="M167.383 93.5974L164.068 83.6965L160.778 93.5974H167.383ZM168.999 98.6265L167.92 95.323H160.217L159.162 98.6265H157.161L163.25 80.9877H164.911L171 98.6265H168.999Z" fill="#101010"/>
<path d="M6.30428 99C4.3908 99 2.79603 98.4566 1.6921 97.4287C0.585202 96.3979 0 94.9076 0 93.1194V93.0157H1.89271V93.1194C1.89271 95.6977 3.58303 97.2988 6.30428 97.2988C8.74539 97.2988 10.1449 96.1297 10.1449 94.0907C10.1051 91.7853 8.24624 91.0434 6.34523 90.4809C6.08824 90.4053 5.82234 90.3302 5.56535 90.2581C3.01978 89.5436 0.388156 88.8042 0.521102 85.3208C0.521102 83.9485 1.05051 82.7693 2.05177 81.9154C3.04946 81.0639 4.42581 80.6146 6.03126 80.6146C7.71921 80.6146 9.1371 81.1086 10.1324 82.0429C11.1355 82.985 11.6661 84.3352 11.6661 85.947V86.0507H9.77335V85.947C9.77335 83.6231 8.39106 82.2902 5.982 82.2902C3.8145 82.2902 2.41381 83.4426 2.41381 85.2248C2.48384 87.4909 4.29999 88.0051 6.40339 88.6004C6.52447 88.635 6.64554 88.6689 6.76781 88.7041C9.0457 89.3577 12.1658 90.2521 12.0133 94.0448C12.0133 95.5285 11.4785 96.7792 10.4678 97.6581C9.4576 98.5358 8.01774 99 6.30428 99Z" fill="#101010"/>
<path d="M69.0431 31.1624L66.7984 35.4705H73.006L74.7432 32.1366C73.1466 31.5515 71.4664 31.1594 69.3701 31.1594C69.2621 31.1594 69.1523 31.1606 69.0431 31.1624Z" fill="#101010"/>
<path d="M119.106 35.4704L102.352 3.31348L95.4093 16.64L98.5128 22.5974L102.352 15.2278L107.683 25.4581C107.667 25.4611 107.65 25.4611 107.634 25.4647C105.428 25.9771 103.422 27.3405 101.195 29.6226C99.7117 31.1439 98.181 32.4297 96.6047 33.4427C96.5566 33.4737 96.575 33.4689 96.5269 33.4993C97.051 34.5302 98.1549 35.1987 99.6535 35.3811C99.9681 35.4192 100.281 35.4389 100.594 35.4389C102.459 35.4389 104.07 34.4962 105.765 32.9172C106.984 31.7802 108.319 30.6999 110.08 30.0606L112.899 35.4704H119.106Z" fill="#101010"/>
<path d="M85.2786 0L73.057 23.4591C74.0909 23.626 75.1142 23.8655 76.138 24.1801C76.9517 24.4298 77.7232 24.7146 78.455 25.0114L85.2786 11.9149L93.418 27.536C93.2833 27.6296 93.148 27.719 93.0127 27.8066C90.9461 29.1329 88.9062 29.7044 86.9482 29.5036C84.6887 29.2712 82.8322 28.4114 80.6819 27.4157C77.5826 25.9808 74.0696 24.3547 68.836 24.4733C66.6169 24.5239 64.6838 24.8666 62.8528 25.5024L68.2057 15.2279L72.0451 22.5975L75.1492 16.6401L68.2057 3.31359L51.4515 35.4706H57.659C59.4929 33.5382 60.9571 32.2326 62.629 31.368C64.504 30.398 66.5148 29.9195 68.9577 29.8647C72.9484 29.7735 75.6121 31.0063 78.4325 32.3125C80.8018 33.4101 83.2512 34.544 86.4015 34.8675C89.5958 35.1959 92.7943 34.3479 95.9072 32.3482C95.9114 32.3452 95.9161 32.3423 95.9203 32.3393C97.4029 31.3859 98.8522 30.1775 100.251 28.7355L85.2786 0Z" fill="#101010"/>
<path d="M54.9725 64.9816H52.2951V58.0845L54.9725 58.0809C57.242 58.0809 58.8896 59.5318 58.8896 61.5309C58.8896 63.5307 57.242 64.9816 54.9725 64.9816ZM54.9653 55.3071H49.2302V72.9524H52.2951V67.7559H54.9653C56.8913 67.7559 58.6338 67.1332 59.8737 66.0035C61.1123 64.8743 61.7949 63.2858 61.7949 61.5309C61.7949 59.7767 61.1123 58.1542 59.8737 57.0381C58.6344 55.9221 56.8913 55.3071 54.9653 55.3071Z" fill="#101010"/>
<path d="M88.0495 64.9816H85.3722V58.0845L88.0495 58.0809C90.3191 58.0809 91.9667 59.5318 91.9667 61.5309C91.9667 63.5307 90.3191 64.9816 88.0495 64.9816ZM94.8719 61.5309C94.8719 59.7767 94.1894 58.1542 92.9507 57.0381C91.7115 55.9221 89.9684 55.3071 88.0424 55.3071H82.3073V72.9524H85.3722V67.7559H88.0424C88.0786 67.7559 88.1136 67.7517 88.1498 67.7517L91.3073 72.9524H94.682L91.1364 67.1463C91.813 66.8591 92.4285 66.479 92.9507 66.0035C94.1894 64.8743 94.8719 63.2858 94.8719 61.5309Z" fill="#101010"/>
<path d="M97.4211 58.2101H102.34V72.9524H105.406V58.2101H110.325V55.3071H97.4211V58.2101Z" fill="#101010"/>
<path d="M114.557 72.9526H125.594V70.174H117.622V65.5811H124.414V62.8026H117.622V58.0858H125.594V55.3072H114.557V72.9526Z" fill="#101010"/>
<path d="M134.298 70.0496V55.3074H131.233V72.9527H141.228V70.0496H134.298Z" fill="#101010"/>
<path d="M34.9678 68.7153L37.86 59.7952L40.3189 67.3329C38.3989 67.4181 36.5341 67.8441 34.9678 68.7153ZM36.4932 55.3071L30.3397 72.9524H33.5939C35.4165 70.911 38.2541 70.1459 41.2252 70.112L42.1517 72.9524H45.4059L39.253 55.3071H36.4932Z" fill="#101010"/>
<path d="M67.8501 68.7153L70.7423 59.7952L73.2012 67.3329C71.2812 67.4181 69.4164 67.8441 67.8501 68.7153ZM69.3754 55.3071L63.2219 72.9524H66.4761C68.2988 70.911 71.1364 70.1459 74.1075 70.112L75.034 72.9524H78.2888L72.1352 55.3071H69.3754Z" fill="#101010"/>
<path d="M27.3905 98.6264L21.3414 90.5668H19.2363V98.6264H17.3435V80.9877H19.2363V88.8161H21.3426L27.4166 80.9877H29.6108L22.9415 89.7332L29.6084 98.6264H27.3905Z" fill="#101010"/>
<path d="M52.6146 80.9881H54.5073V98.6269H52.6146V80.9881Z" fill="#101010"/>
</svg>
