<svg width="32" height="32" viewBox="0 0 32 32" fill="none" xmlns="http://www.w3.org/2000/svg">
<g id="fav-icon">
<rect width="32" height="32" fill="white"/>
<path id="Vector" d="M27.5133 12.1115C27.3475 11.8088 27.1154 11.541 26.8315 11.3248C26.5477 11.1087 26.2183 10.9489 25.864 10.8556C24.6136 10.5381 22.9337 11.1661 22.0285 11.6035C21.9701 10.689 21.5272 9.83123 20.7935 9.21169C20.2154 8.76005 19.5427 8.42242 18.817 8.21974C18.0912 8.01706 17.328 7.95364 16.5745 8.03342C13.2069 8.16747 11.2892 9.33163 10.1999 11.152C9.70745 11.9907 9.52949 12.9554 9.69362 13.8966C8.60434 13.6778 6.51017 13.4168 5.25213 14.3834C4.84743 14.713 4.52586 15.1199 4.3099 15.5757C4.09393 16.0315 3.98877 16.5251 4.00177 17.0221C3.98676 17.4286 4.06741 17.8331 4.23821 18.2082C4.409 18.5833 4.6659 18.92 4.99132 19.1952C7.83725 21.7705 15.3088 21.8905 18.2391 21.2766C18.4999 21.2202 18.776 21.1496 19.0675 21.072C19.5661 21.072 20.3102 21.199 20.3102 21.8199C20.3102 22.4408 20.4943 21.3119 20.5173 20.6205C23.3096 19.6256 26.6004 17.7983 27.682 15.2935C27.9174 14.786 28.0245 14.2359 27.9953 13.6847C27.9661 13.1335 27.8012 12.5956 27.5133 12.1115ZM23.9463 17.9111C24.3814 17.2336 24.6118 16.4614 24.6136 15.6745C23.3633 18.4968 22.6575 18.1651 21.1157 18.5885C17.7328 19.5057 17.5794 16.4718 18.1163 14.6797C16.4517 16.6341 17.3492 19.1952 17.3492 19.1952C14.8255 20.6064 11.013 19.1952 11.013 19.1952C11.4581 19.7147 11.9887 20.167 12.5856 20.5358C9.82403 20.2677 6.87838 19.6609 5.57432 18.4968C5.35666 18.3219 5.18441 18.1043 5.07024 17.8601C4.95607 17.6159 4.90289 17.3513 4.91461 17.0856C4.89465 16.7272 4.96136 16.3692 5.10992 16.0374C5.25848 15.7055 5.4852 15.4081 5.77376 15.1665C6.93207 14.2987 9.45582 14.8349 10.1846 15.0537L11.2585 15.3641L10.7599 14.334C10.6043 13.8854 10.5478 13.4127 10.5939 12.9438C10.6401 12.4748 10.7878 12.0191 11.0284 11.6035C11.8875 10.0301 13.7439 9.11291 16.6358 8.92947C17.2583 8.85128 17.8919 8.89917 18.4921 9.0698C19.0924 9.24042 19.6448 9.52965 20.1108 9.91724C20.4656 10.2281 20.7343 10.6125 20.8945 11.0385C21.0546 11.4644 21.1016 11.9195 21.0313 12.3655C21.0313 12.6477 21.0313 12.937 21.0313 13.2051C20.9699 12.556 23.6241 11.921 24.0997 11.8505C24.383 11.7771 24.6798 11.7583 24.9714 11.7952C25.263 11.8321 25.5432 11.924 25.7945 12.0651C26.0457 12.2061 26.2627 12.3933 26.4317 12.615C26.6007 12.8366 26.7182 13.088 26.7768 13.3533C27.4596 15.4629 25.6109 16.874 23.9463 17.9111Z" fill="#4CAF50"/>
</g>
</svg>
